<?xml version="1.0" encoding="UTF-8"?>
<svg version="1.1" xmlns="http://www.w3.org/2000/svg" width="483" height="500">
<path d="M0 0 C0.77859375 0.33725098 1.5571875 0.67450195 2.359375 1.02197266 C20.61748094 8.98344393 37.62343723 19.3357487 53 32 C53.99257813 32.79019531 54.98515625 33.58039062 56.0078125 34.39453125 C70.98536778 46.49724772 84.69407121 60.41034485 96 76 C96.85491814 77.14884745 97.71039429 78.29727984 98.56640625 79.4453125 C104.60890768 87.63592721 109.99277903 96.14220919 115 105 C115.4021875 105.70721191 115.804375 106.41442383 116.21875 107.14306641 C130.97111537 133.34580287 140.50635806 162.28630797 145 192 C145.17660156 193.12245117 145.35320312 194.24490234 145.53515625 195.40136719 C147.1920586 207.01447743 147.39873513 218.53179945 147.375 230.25 C147.37418427 231.76802216 147.37418427 231.76802216 147.37335205 233.31671143 C147.33261956 249.84530572 146.42924222 265.77913999 143 282 C142.78037598 283.04188477 142.56075195 284.08376953 142.33447266 285.15722656 C132.22936975 331.48479672 109.85445651 373.81150984 77 408 C76.43265137 408.59458008 75.86530273 409.18916016 75.28076172 409.80175781 C66.75715011 418.68978304 57.97688993 426.77359748 48 434 C47.37512695 434.4532666 46.75025391 434.9065332 46.10644531 435.37353516 C24.46445062 450.92769876 1.46266355 463.02002823 -24 471 C-24.85400391 471.26941406 -25.70800781 471.53882813 -26.58789062 471.81640625 C-79.57304077 488.19867075 -138.37151374 484.42328928 -189 462 C-189.77859375 461.66274902 -190.5571875 461.32549805 -191.359375 460.97802734 C-209.61748094 453.01655607 -226.62343723 442.6642513 -242 430 C-242.99257812 429.20980469 -243.98515625 428.41960937 -245.0078125 427.60546875 C-259.98536778 415.50275228 -273.69407121 401.58965515 -285 386 C-285.85491814 384.85115255 -286.71039429 383.70272016 -287.56640625 382.5546875 C-293.60890768 374.36407279 -298.99277903 365.85779081 -304 357 C-304.4021875 356.29278809 -304.804375 355.58557617 -305.21875 354.85693359 C-319.97111537 328.65419713 -329.50635806 299.71369203 -334 270 C-334.26490234 268.31632324 -334.26490234 268.31632324 -334.53515625 266.59863281 C-336.1920586 254.98552257 -336.39873513 243.46820055 -336.375 231.75 C-336.37445618 230.73798523 -336.37391235 229.72597046 -336.37335205 228.68328857 C-336.33261956 212.15469428 -335.42924222 196.22086001 -332 180 C-331.78037598 178.95811523 -331.56075195 177.91623047 -331.33447266 176.84277344 C-321.22936975 130.51520328 -298.85445651 88.18849016 -266 54 C-265.43265137 53.40541992 -264.86530273 52.81083984 -264.28076172 52.19824219 C-255.75715011 43.31021696 -246.97688993 35.22640252 -237 28 C-236.37512695 27.5467334 -235.75025391 27.0934668 -235.10644531 26.62646484 C-213.46445062 11.07230124 -190.46266355 -1.02002823 -165 -9 C-164.14599609 -9.26941406 -163.29199219 -9.53882813 -162.41210938 -9.81640625 C-109.42695923 -26.19867075 -50.62848626 -22.42328928 0 0 Z " fill="#FAFAFB" transform="translate(336,19)"/>
<path d="M0 0 C49.99968604 -1.7937613 94.00837092 17.79302762 130.3046875 51.22705078 C160.58727271 80.49624239 178.17561243 120.86920094 183.9765625 162.08251953 C184.16347656 163.30712891 184.35039062 164.53173828 184.54296875 165.79345703 C190.05498742 211.25925954 175.15921423 258.8256237 147.9765625 295.08251953 C144.86161441 298.96214801 141.45480116 302.52866699 137.9765625 306.08251953 C136.82212732 307.42936058 135.67573644 308.78315547 134.5390625 310.14501953 C111.94580517 335.93593045 78.03611339 353.32857425 45.1640625 361.33251953 C44.4947168 361.49606934 43.82537109 361.65961914 43.13574219 361.828125 C31.31341224 364.54453578 19.40627897 364.20420982 7.3515625 364.14501953 C5.5664075 364.13999503 3.78125114 364.13543381 1.99609375 364.13134766 C-2.3437842 364.12041604 -6.68359552 364.10320363 -11.0234375 364.08251953 C-11.08139386 361.25799941 -11.12324019 358.43469831 -11.15625 355.60986328 C-11.17405518 354.82204468 -11.19186035 354.03422607 -11.21020508 353.22253418 C-11.33662861 338.73216646 -5.01791076 323.67843045 4.79296875 313.05908203 C9.4528077 308.8410525 14.71190586 305.4835809 19.9765625 302.08251953 C21.05744141 301.32648438 21.05744141 301.32648438 22.16015625 300.55517578 C24.9566695 298.70536635 26.43786732 297.9867515 29.7890625 298.58251953 C31.366875 299.32501953 31.366875 299.32501953 32.9765625 300.08251953 C34.68124336 300.77902666 36.38989404 301.46586557 38.1015625 302.14501953 C38.92914063 302.48662109 39.75671875 302.82822266 40.609375 303.18017578 C50.016647 306.7661161 58.42604006 304.9622178 67.40234375 301.01611328 C77.69089009 295.7767359 81.88122236 287.33605756 86.2734375 277.04345703 C88.26897207 273.5741561 90.26124702 272.03927641 93.5390625 269.77001953 C112.47697072 256.17416048 127.3400367 239.72478404 133.9765625 217.08251953 C134.3065625 217.08251953 134.6365625 217.08251953 134.9765625 217.08251953 C134.86825486 242.75143021 122.16238944 275.99560554 104.9765625 295.08251953 C104.29078125 295.87400391 103.605 296.66548828 102.8984375 297.48095703 C92.38137132 309.43216859 81.85874808 318.83313373 68.0390625 326.70751953 C67.40726074 327.06789307 66.77545898 327.4282666 66.12451172 327.79956055 C64.09259802 328.93094947 62.04336287 330.01616432 59.9765625 331.08251953 C59.194021 331.48688232 58.41147949 331.89124512 57.60522461 332.30786133 C49.52326982 336.23754947 41.07457011 338.42395433 32.4140625 340.64501953 C16.02424887 344.34054433 16.02424887 344.34054433 1.4140625 352.14501953 C0.45306641 352.87398438 0.45306641 352.87398438 -0.52734375 353.61767578 C-2.28967403 355.1201824 -2.28967403 355.1201824 -3.0234375 358.08251953 C26.85250255 357.26007591 26.85250255 357.26007591 55.9765625 351.08251953 C57.06155029 350.74196533 57.06155029 350.74196533 58.16845703 350.39453125 C78.34430479 343.83309145 98.0693877 333.10240241 113.9765625 319.08251953 C115.18505859 318.03837891 115.18505859 318.03837891 116.41796875 316.97314453 C118.98064339 314.71897807 121.485724 312.41584912 123.9765625 310.08251953 C124.72292969 309.38715088 124.72292969 309.38715088 125.484375 308.67773438 C153.41430954 282.44182603 175.21155684 242.74689449 177.08227539 203.8865509 C177.14091138 201.38113791 177.16748744 198.8776534 177.1796875 196.37158203 C177.18538757 195.44517914 177.19108765 194.51877625 177.19696045 193.56430054 C177.20637413 191.60602953 177.21292992 189.64774294 177.21679688 187.68945312 C177.22641956 184.75116759 177.25744326 181.8136076 177.2890625 178.87548828 C177.56248567 131.24094319 155.71903042 87.78595805 122.9765625 54.08251953 C97.56971846 28.55877283 59.20950548 8.10359551 22.58428955 7.943573 C21.45588654 7.94660934 21.45588654 7.94660934 20.3046875 7.94970703 C19.50101746 7.94875031 18.69734741 7.94779358 17.86932373 7.94680786 C16.17850669 7.94613155 14.48768696 7.94794726 12.796875 7.95214844 C10.24733449 7.95747612 7.69797241 7.95219923 5.1484375 7.94580078 C-7.58597434 7.93795169 -19.71264839 8.33120887 -32.0859375 11.64501953 C-33.07400391 11.90750488 -34.06207031 12.16999023 -35.08007812 12.44042969 C-44.79298562 15.12754266 -53.9347281 18.75277672 -63.0234375 23.08251953 C-63.6824707 23.39415039 -64.34150391 23.70578125 -65.02050781 24.02685547 C-78.8490197 30.68398422 -91.74085132 39.54298714 -102.8984375 50.07861328 C-104.89849416 51.96469612 -106.96742748 53.70726614 -109.0859375 55.45751953 C-114.04643434 59.80291477 -118.0057763 64.87516254 -122.0234375 70.08251953 C-122.4555957 70.63439941 -122.88775391 71.1862793 -123.33300781 71.75488281 C-145.45115341 100.13212873 -162.0114964 137.83296532 -162.2265625 174.26220703 C-162.23226257 175.03323761 -162.23796265 175.80426819 -162.24383545 176.59866333 C-162.25323708 178.22738293 -162.25980006 179.85612114 -162.26367188 181.48486328 C-162.27327437 183.916215 -162.30429992 186.34668178 -162.3359375 188.77783203 C-162.56721834 223.07889468 -150.22532449 258.47736137 -130.0234375 286.08251953 C-129.40178711 286.94538574 -129.40178711 286.94538574 -128.76757812 287.82568359 C-106.34537429 318.6779408 -75.31508784 338.01153792 -40.0234375 351.08251953 C-42.60402943 331.08293205 -55.63156944 312.23716202 -65.05761719 294.73828125 C-67.59118818 290.0324456 -70.09169927 285.30929686 -72.5859375 280.58251953 C-73.27463926 279.28038313 -73.96342715 277.97829228 -74.65234375 276.67626953 C-75.10480469 275.82033203 -75.55726563 274.96439453 -76.0234375 274.08251953 C-74.0234375 273.08251953 -74.0234375 273.08251953 -70.7734375 274.02001953 C-67.28252202 275.00911225 -64.61662139 275.25779679 -61.0234375 275.08251953 C-60.3634375 273.43251953 -59.7034375 271.78251953 -59.0234375 270.08251953 C-56.74431665 272.95813566 -55.0210298 275.84370456 -53.38793945 279.12646484 C-52.88764725 280.12720032 -52.38735504 281.12793579 -51.87190247 282.15899658 C-51.34054184 283.23204041 -50.80918121 284.30508423 -50.26171875 285.41064453 C-49.71106247 286.51478699 -49.16040619 287.61892944 -48.59306335 288.75653076 C-47.13529192 291.68135905 -45.68100289 294.60788393 -44.22839355 297.53527832 C-42.74307272 300.52643941 -41.25311004 303.51528152 -39.76367188 306.50439453 C-36.84604838 312.3616809 -33.93300597 318.22122809 -31.0234375 324.08251953 C-29.47300223 319.45667902 -27.9255958 314.83242281 -26.48046875 310.17236328 C-22.91094956 298.8945945 -18.78102853 288.41727498 -13.0234375 278.08251953 C-12.67555176 277.44620605 -12.32766602 276.80989258 -11.96923828 276.15429688 C-6.65426343 266.51436765 -0.44248963 258.20127269 6.9765625 250.08251953 C7.63140625 249.35677734 8.28625 248.63103516 8.9609375 247.88330078 C15.50659428 240.98798285 24.18716958 232.86805015 32.9765625 229.08251953 C30.64546319 232.77342677 28.12981178 236.15125169 25.3515625 239.52001953 C0.09396759 270.83380356 -16.10222574 311.30305163 -19.3918457 351.41333008 C-19.72375053 355.31495261 -20.34502957 358.53230687 -22.0234375 362.08251953 C-29.8053134 361.52527465 -36.91296524 359.11734729 -44.2734375 356.64501953 C-44.93650909 356.42354248 -45.59958069 356.20206543 -46.28274536 355.97387695 C-63.95497973 350.02773053 -79.94772695 342.06746143 -95.0234375 331.08251953 C-95.59191406 330.67485352 -96.16039062 330.2671875 -96.74609375 329.84716797 C-135.61753169 301.71186181 -160.49658835 257.99488877 -168.55615234 210.97460938 C-169.10596564 206.39512999 -169.22313906 201.90150773 -169.26171875 197.29345703 C-169.2697905 196.35434479 -169.27786224 195.41523254 -169.28617859 194.44766235 C-169.29996674 192.45910453 -169.31071229 190.47052356 -169.31860352 188.48193359 C-169.33001627 186.49064976 -169.35029352 184.49939383 -169.38012695 182.50830078 C-169.65335821 164.21554422 -167.34650669 147.00776156 -161.8359375 129.52001953 C-161.54259521 128.57586182 -161.24925293 127.6317041 -160.94702148 126.65893555 C-154.30475946 106.00697399 -144.04397946 87.35814056 -131.0234375 70.08251953 C-130.37375 69.20595703 -129.7240625 68.32939453 -129.0546875 67.42626953 C-117.60065547 52.69965693 -103.73279903 39.17847875 -88.0234375 29.08251953 C-87.37761719 28.66212402 -86.73179687 28.24172852 -86.06640625 27.80859375 C-60.34699678 11.28449742 -30.55501928 1.24609031 0 0 Z " fill="#183945" transform="translate(234.0234375,70.91748046875)"/>
<path d="M0 0 C3.33499263 2.63823426 3.91685977 5.51140369 4.9375 9.546875 C5.1037085 10.19513245 5.26991699 10.84338989 5.44116211 11.5112915 C5.79217957 12.8886105 6.13816952 14.26721916 6.47949219 15.64697266 C6.9885527 17.70374906 7.51222483 19.75630804 8.0390625 21.80859375 C12.7685002 40.39990565 15.1890105 58.07317167 15.0625 77.3125 C15.05746607 78.65038892 15.05290657 79.9882797 15.04882812 81.32617188 C15.03718676 84.55083085 15.02083703 87.7753896 15 91 C14.88785156 90.36578125 14.77570313 89.7315625 14.66015625 89.078125 C14.44230469 88.39234375 14.22445313 87.7065625 14 87 C11.50965614 85.70339566 11.50965614 85.70339566 9 85 C8.5875 85.61746094 8.175 86.23492187 7.75 86.87109375 C-4.01971581 104.13159215 -17.45313087 114.12196584 -37 121 C-37.65049316 121.22977539 -38.30098633 121.45955078 -38.97119141 121.69628906 C-49.24106521 125.25297826 -49.24106521 125.25297826 -53 124 C-52.11699219 123.15179688 -51.23398437 122.30359375 -50.32421875 121.4296875 C-31.97690633 103.59366414 -20.14143828 85.30087066 -12 61 C-11.60683594 59.82695312 -11.21367187 58.65390625 -10.80859375 57.4453125 C-10.54175781 56.63835937 -10.27492188 55.83140625 -10 55 C-12.65281695 57.5609445 -14.94449997 60.15557534 -17.125 63.125 C-33.05358141 83.6574119 -57.14198398 94.99216582 -79.8125 106.625 C-94.26741873 114.07020692 -107.41708622 121.45588996 -119 133 C-119.83660156 133.81210937 -120.67320312 134.62421875 -121.53515625 135.4609375 C-139.01124457 153.46324718 -147.49167859 177.30611098 -154 201 C-156.94769567 197.53057772 -159.08836689 194.14968883 -161.06640625 190.0546875 C-161.6286792 188.90452148 -162.19095215 187.75435547 -162.77026367 186.56933594 C-163.20850967 185.66483704 -163.20850967 185.66483704 -163.65560913 184.74206543 C-174.54679514 162.31978997 -186.71337596 140.98095444 -203 122 C-197.84742521 132.44154126 -192.53204864 142.79114478 -187.12597656 153.10375977 C-186.16280271 154.94152706 -185.20217801 156.78063362 -184.24462891 158.62133789 C-183.22442842 160.57108551 -182.18001925 162.50814831 -181.12890625 164.44140625 C-179.58732025 167.93531223 -180.14030081 170.34627846 -181 174 C-181.33 174.33 -181.66 174.66 -182 175 C-184.07421875 174.984375 -184.07421875 174.984375 -186.6875 174.75 C-187.53699219 174.68296875 -188.38648438 174.6159375 -189.26171875 174.546875 C-194.07682229 173.58522807 -197.18078691 172.17246618 -200.03540039 168.08691406 C-200.65710751 166.90559186 -201.26027507 165.71438487 -201.84765625 164.515625 C-202.18131699 163.8717131 -202.51497772 163.22780121 -202.85874939 162.56437683 C-203.5718617 161.1838419 -204.27718485 159.79926034 -204.9753418 158.41110229 C-206.44490356 155.48984088 -207.95228932 152.58871702 -209.45809937 149.6860199 C-210.21832622 148.21985356 -210.97664601 146.75269682 -211.73306274 145.28456116 C-216.43427452 136.17260574 -221.49303926 127.27085001 -226.62451172 118.39501953 C-227.8970331 116.17928741 -229.14144269 113.95027877 -230.37890625 111.71484375 C-237.57023136 98.92903242 -246.55381352 88.89160375 -259 81 C-261.28125 79.4453125 -261.28125 79.4453125 -263 78 C-263 77.34 -263 76.68 -263 76 C-241.38664318 75.62496845 -218.56474116 76.53711739 -201 91 C-200.33226562 91.50917969 -199.66453125 92.01835937 -198.9765625 92.54296875 C-179.53883223 108.21975887 -171.77655514 135.60569639 -163.27658081 158.09700012 C-161.35564756 163.14970704 -159.27809269 168.09592855 -157 173 C-156.83564453 171.97567871 -156.83564453 171.97567871 -156.66796875 170.93066406 C-154.11307393 155.42993026 -150.73160532 141.22831506 -144 127 C-143.69803711 126.35724121 -143.39607422 125.71448242 -143.08496094 125.05224609 C-130.14419849 98.07907029 -105.86786272 83.09731416 -80.3125 69.625 C-78.4586149 68.63904279 -76.60588504 67.65093787 -74.75320435 66.66271973 C-72.94286288 65.69713234 -71.13192141 64.7326797 -69.32080078 63.76855469 C-38.56722032 47.39015909 -16.51472638 31.37615326 0 0 Z " fill="#CC801E" transform="translate(355,172)"/>
<path d="M0 0 C0.77859375 0.33725098 1.5571875 0.67450195 2.359375 1.02197266 C20.61748094 8.98344393 37.62343723 19.3357487 53 32 C53.99257813 32.79019531 54.98515625 33.58039062 56.0078125 34.39453125 C70.98536778 46.49724772 84.69407121 60.41034485 96 76 C96.85491814 77.14884745 97.71039429 78.29727984 98.56640625 79.4453125 C104.60890768 87.63592721 109.99277903 96.14220919 115 105 C115.4021875 105.70721191 115.804375 106.41442383 116.21875 107.14306641 C130.97111537 133.34580287 140.50635806 162.28630797 145 192 C145.17660156 193.12245117 145.35320312 194.24490234 145.53515625 195.40136719 C147.1920586 207.01447743 147.39873513 218.53179945 147.375 230.25 C147.37418427 231.76802216 147.37418427 231.76802216 147.37335205 233.31671143 C147.33261956 249.84530572 146.42924222 265.77913999 143 282 C142.78037598 283.04188477 142.56075195 284.08376953 142.33447266 285.15722656 C132.22936975 331.48479672 109.85445651 373.81150984 77 408 C76.43265137 408.59458008 75.86530273 409.18916016 75.28076172 409.80175781 C66.75715011 418.68978304 57.97688993 426.77359748 48 434 C47.37512695 434.4532666 46.75025391 434.9065332 46.10644531 435.37353516 C24.46445062 450.92769876 1.46266355 463.02002823 -24 471 C-24.85400391 471.26941406 -25.70800781 471.53882813 -26.58789062 471.81640625 C-79.57304077 488.19867075 -138.37151374 484.42328928 -189 462 C-189.77859375 461.66274902 -190.5571875 461.32549805 -191.359375 460.97802734 C-209.61748094 453.01655607 -226.62343723 442.6642513 -242 430 C-242.99257812 429.20980469 -243.98515625 428.41960937 -245.0078125 427.60546875 C-259.98536778 415.50275228 -273.69407121 401.58965515 -285 386 C-285.85491814 384.85115255 -286.71039429 383.70272016 -287.56640625 382.5546875 C-293.60890768 374.36407279 -298.99277903 365.85779081 -304 357 C-304.4021875 356.29278809 -304.804375 355.58557617 -305.21875 354.85693359 C-319.97111537 328.65419713 -329.50635806 299.71369203 -334 270 C-334.26490234 268.31632324 -334.26490234 268.31632324 -334.53515625 266.59863281 C-336.1920586 254.98552257 -336.39873513 243.46820055 -336.375 231.75 C-336.37445618 230.73798523 -336.37391235 229.72597046 -336.37335205 228.68328857 C-336.33261956 212.15469428 -335.42924222 196.22086001 -332 180 C-331.78037598 178.95811523 -331.56075195 177.91623047 -331.33447266 176.84277344 C-321.22936975 130.51520328 -298.85445651 88.18849016 -266 54 C-265.43265137 53.40541992 -264.86530273 52.81083984 -264.28076172 52.19824219 C-255.75715011 43.31021696 -246.97688993 35.22640252 -237 28 C-236.37512695 27.5467334 -235.75025391 27.0934668 -235.10644531 26.62646484 C-213.46445062 11.07230124 -190.46266355 -1.02002823 -165 -9 C-164.14599609 -9.26941406 -163.29199219 -9.53882813 -162.41210938 -9.81640625 C-109.42695923 -26.19867075 -50.62848626 -22.42328928 0 0 Z M-151.5625 -7.25 C-152.51463379 -6.99105957 -153.46676758 -6.73211914 -154.44775391 -6.46533203 C-202.6840315 6.94209319 -248.29843074 34.90546812 -279 75 C-279.41958984 75.54317871 -279.83917969 76.08635742 -280.27148438 76.64599609 C-310.36200893 115.79662385 -330.98177915 166.01484702 -331.203125 215.82421875 C-331.20882507 216.8469136 -331.21452515 217.86960846 -331.22039795 218.92329407 C-331.22980194 221.08402489 -331.23636351 223.24476976 -331.24023438 225.40551758 C-331.24983857 228.63324781 -331.28086434 231.8603121 -331.3125 235.08789062 C-331.40956707 253.79234749 -329.53979439 271.87756265 -324.8125 290 C-324.51206787 291.17224121 -324.21163574 292.34448242 -323.90209961 293.55224609 C-320.9749012 304.64502526 -317.31352765 315.37404387 -313 326 C-312.67918457 326.79051758 -312.35836914 327.58103516 -312.02783203 328.39550781 C-296.97943923 364.88155516 -272.12697281 399.51486775 -240.67626953 423.70849609 C-239.46848388 424.63905044 -238.26708459 425.57791483 -237.06982422 426.52197266 C-197.24595446 457.81017652 -147.3926707 476.28173164 -96.625 476.1875 C-95.91969147 476.18623108 -95.21438293 476.18496216 -94.48770142 476.18365479 C-41.28644529 476.00194471 11.11099005 458.66920314 52 424 C53.15428689 423.04737556 54.30925118 422.0955714 55.46484375 421.14453125 C67.79234165 410.89717085 79.26395905 399.76467909 89 387 C89.51530273 386.33403809 90.03060547 385.66807617 90.56152344 384.98193359 C99.39751914 373.52235788 107.24146131 361.80044988 114 349 C114.46003418 348.12923828 114.92006836 347.25847656 115.39404297 346.36132812 C146.31749702 286.88411515 151.23732896 217.02878828 131.7265625 153.1953125 C126.90420803 138.23861216 120.40321808 123.84479561 113 110 C112.64969727 109.33806641 112.29939453 108.67613281 111.93847656 107.99414062 C103.03058945 91.26684138 91.93595201 76.3588016 79.1484375 62.37109375 C77.23772896 60.26236633 75.39699852 58.11219895 73.5625 55.9375 C61.67879471 42.41001688 46.13085294 31.43686334 30.80419922 22.10351562 C28.91148066 20.94585827 27.03663814 19.76188913 25.16015625 18.578125 C4.55673773 5.8015643 -18.12380616 -2.44249505 -41.5625 -8.25 C-42.5426709 -8.4965332 -43.5228418 -8.74306641 -44.53271484 -8.99707031 C-60.15902102 -12.71040453 -75.63832592 -13.34963268 -91.63671875 -13.31567383 C-94.73213122 -13.31251822 -97.82657996 -13.33605741 -100.921875 -13.36132812 C-118.10933674 -13.41684125 -134.95042901 -11.86534529 -151.5625 -7.25 Z " fill="#173945" transform="translate(336,19)"/>
<path d="M0 0 C0.33 0 0.66 0 1 0 C3.547264 21.97015203 3.2016816 43.92051925 3 66 C3.12189697 65.3716626 3.24379395 64.7433252 3.36938477 64.09594727 C7.41794683 43.50007597 14.23686305 23.82800554 21 4 C21.33 4 21.66 4 22 4 C21.45991044 11.62597963 20.07226549 18.8807677 18.3125 26.3125 C18.04993408 27.43881836 17.78736816 28.56513672 17.5168457 29.72558594 C15.5560771 37.99752385 13.35305382 46.18108488 10.91723633 54.32543945 C9.66107146 58.53984908 8.59927918 62.62878715 8 67 C8.49628906 65.98421875 8.99257812 64.9684375 9.50390625 63.921875 C16.60978877 49.47377631 24.76042976 36.16960181 34 23 C35.11955078 21.39511719 35.11955078 21.39511719 36.26171875 19.7578125 C37.83685365 17.50214265 39.41576809 15.2492849 41 13 C41.495 13.99 41.495 13.99 42 15 C41.1706543 17.05273437 41.1706543 17.05273437 39.82421875 19.59375 C39.33083008 20.53307373 38.83744141 21.47239746 38.32910156 22.44018555 C37.78737305 23.44992432 37.24564453 24.45966309 36.6875 25.5 C35.86523926 27.05037964 35.86523926 27.05037964 35.02636719 28.63208008 C33.36132089 31.76042922 31.6829625 34.88125855 30 38 C29.52965332 38.87575684 29.05930664 39.75151367 28.57470703 40.65380859 C23.48839667 50.0949784 18.16479923 59.21774412 12 68 C12.33 68.33 12.66 68.66 13 69 C14.35491884 67.50067938 15.70888678 66.00049946 17.0625 64.5 C17.89265625 63.58089844 18.7228125 62.66179687 19.578125 61.71484375 C21.53052275 59.52626886 23.42670254 57.30771925 25.3125 55.0625 C33.17899246 46.05146014 42.68007898 38.43532404 52 31 C53.39412109 29.88431641 53.39412109 29.88431641 54.81640625 28.74609375 C55.89728516 27.88177734 55.89728516 27.88177734 57 27 C57.33 27.66 57.66 28.32 58 29 C57.34 29 56.68 29 56 29 C55.74259033 29.57959473 55.48518066 30.15918945 55.2199707 30.75634766 C53.89196739 33.19868315 52.40542886 34.89667654 50.48046875 36.8984375 C49.78759766 37.62546875 49.09472656 38.3525 48.38085938 39.1015625 C47.29514648 40.22691406 47.29514648 40.22691406 46.1875 41.375 C41.62320647 46.1334309 37.16965121 50.89103176 33 56 C29.51300192 59.67548446 25.76352492 62.97361574 21.9375 66.28515625 C19.5154765 68.42884237 17.25104107 70.6786139 15 73 C18.211863 71.20733228 21.38289085 69.39553295 24.48046875 67.41015625 C35.00169518 60.6941777 46.09606253 55.07908797 57.21337891 49.42382812 C58.97277444 48.5248624 60.72602342 47.61366771 62.47021484 46.68554688 C64.28408359 45.73221311 66.13832876 44.85623904 68 44 C68.66 44.33 69.32 44.66 70 45 C53.33122252 56.764809 36.1999527 67.74626061 18 77 C19.39603943 76.58402437 20.79181199 76.16715317 22.1875 75.75 C23.11175781 75.47542969 24.03601563 75.20085937 24.98828125 74.91796875 C26.95149027 74.31958468 28.90788035 73.6982012 30.85546875 73.05078125 C37.61913914 70.8370573 44.408907 69.17033938 51.375 67.75 C52.2191748 67.57476807 53.06334961 67.39953613 53.93310547 67.21899414 C58.71663669 66.27867829 63.12614097 65.81608079 68 66 C55.33504084 76.35951743 33.76462036 79.13536748 18 81 C25.26 81 32.52 81 40 81 C36.75552202 84.24447798 34.94969109 85.82856665 30.37890625 86.23046875 C28.98478516 86.20919922 28.98478516 86.20919922 27.5625 86.1875 C26.63566406 86.18105469 25.70882812 86.17460937 24.75390625 86.16796875 C22.08283944 86.00505262 19.60658042 85.5913295 17 85 C17 85.66 17 86.32 17 87 C19.31 87.66 21.62 88.32 24 89 C24 89.33 24 89.66 24 90 C21.36 90.33 18.72 90.66 16 91 C16.33 91.99 16.66 92.98 17 94 C15.33779419 95.00739746 13.66979326 96.00522955 12 97 C11.41089844 97.35964844 10.82179688 97.71929687 10.21484375 98.08984375 C5.33696619 101 5.33696619 101 2 101 C1.505 102.98 1.505 102.98 1 105 C0.34 105 -0.32 105 -1 105 C-1 103.68 -1 102.36 -1 101 C-1.99 101.495 -1.99 101.495 -3 102 C-3.4640625 103.7015625 -3.4640625 103.7015625 -3.9375 105.4375 C-5 109 -5 109 -8 111 C-7 103.57142857 -7 103.57142857 -6 100 C-6.66 100 -7.32 100 -8 100 C-8.556875 101.8871875 -8.556875 101.8871875 -9.125 103.8125 C-12.2096646 112.92434336 -17.13377134 120.34616209 -23.10449219 127.80053711 C-27.85125479 133.85506308 -31.39251141 140.51052111 -35.04101562 147.26025391 C-36.88239133 150.60079446 -38.93147781 153.79712693 -41 157 C-41.33 156.34 -41.66 155.68 -42 155 C-40.92700195 152.42822266 -40.92700195 152.42822266 -39.23828125 149.1640625 C-38.93623779 148.57684921 -38.63419434 147.98963593 -38.32299805 147.3846283 C-37.32857754 145.45988177 -36.32136561 143.54220993 -35.3125 141.625 C-34.97286224 140.97361053 -34.63322449 140.32222107 -34.28329468 139.65109253 C-27.18383634 126.0400451 -19.6083684 112.72103152 -11 100 C-11.33 99.67 -11.66 99.34 -12 99 C-13.77311263 100.91460039 -15.54353362 102.83157493 -17.3125 104.75 C-17.81201172 105.28882813 -18.31152344 105.82765625 -18.82617188 106.3828125 C-20.92386033 108.66109664 -22.91195415 110.87836555 -24.73046875 113.390625 C-25.35888672 114.18726563 -25.35888672 114.18726563 -26 115 C-26.66 115 -27.32 115 -28 115 C-28.495 116.485 -28.495 116.485 -29 118 C-30.390625 119.40234375 -30.390625 119.40234375 -32.25 120.9375 C-34.96273186 123.22912186 -37.61996054 125.55676548 -40.2109375 127.984375 C-40.77393555 128.51168213 -41.33693359 129.03898926 -41.91699219 129.58227539 C-43.03241814 130.63057809 -44.14517574 131.68172929 -45.25488281 132.73608398 C-48.64158788 135.90581208 -52.0719575 138.52875404 -56 141 C-54.72793566 138.26391065 -53.36454874 136.05672403 -51.3828125 133.78515625 C-50.86444824 133.18791748 -50.34608398 132.59067871 -49.81201172 131.9753418 C-49.25529785 131.344104 -48.69858398 130.71286621 -48.125 130.0625 C-47.25705811 129.07213745 -47.25705811 129.07213745 -46.37158203 128.06176758 C-44.58811582 126.03479243 -42.79604828 124.01583049 -41 122 C-40.46955078 121.40348633 -39.93910156 120.80697266 -39.39257812 120.19238281 C-33.39479884 113.48021836 -27.23270712 107.17330461 -20.47265625 101.21875 C-17.88688923 98.89850408 -15.43648937 96.47571728 -13 94 C-13.64324219 94.4125 -14.28648437 94.825 -14.94921875 95.25 C-17.96102561 97.17480667 -20.98055678 99.08719738 -24 101 C-25.37671875 101.88558594 -25.37671875 101.88558594 -26.78125 102.7890625 C-34.16941054 107.45631445 -41.76678215 111.69201764 -49.4375 115.875 C-50.48059326 116.44686035 -51.52368652 117.0187207 -52.59838867 117.60791016 C-53.59588135 118.14722168 -54.59337402 118.6865332 -55.62109375 119.2421875 C-56.5123999 119.7254248 -57.40370605 120.20866211 -58.32202148 120.70654297 C-61.1566307 122.07565224 -63.99650151 123.06682615 -67 124 C-63.43313347 118.66973877 -58.52636866 115.69025247 -53.25 112.25 C-52.31639648 111.63527832 -51.38279297 111.02055664 -50.42089844 110.38720703 C-22.22107922 92 -22.22107922 92 -15 92 C-15 91.34 -15 90.68 -15 90 C-15.64735107 90.21615967 -16.29470215 90.43231934 -16.96166992 90.6550293 C-38.07544553 97.66440811 -59.1719625 102.80320224 -81 107 C-79.28268394 103.56536788 -75.17313148 103.0773195 -71.70703125 101.8828125 C-70.85670319 101.5852002 -70.00637512 101.28758789 -69.13027954 100.98095703 C-66.36126285 100.0182258 -63.5875952 99.07005708 -60.8125 98.125 C-59.87971222 97.80497009 -58.94692444 97.48494019 -57.98587036 97.1552124 C-44.45263493 92.53330848 -31.26038843 88.61937203 -17 87 C-17 86.34 -17 85.68 -17 85 C-17.71967957 85.16233124 -18.43935913 85.32466248 -19.18084717 85.49191284 C-21.89657776 85.98136053 -24.35146097 86.12686867 -27.10644531 86.12939453 C-28.59389252 86.13412277 -28.59389252 86.13412277 -30.11138916 86.13894653 C-31.17291199 86.1369223 -32.23443481 86.13489807 -33.328125 86.1328125 C-34.98349274 86.13424759 -34.98349274 86.13424759 -36.67230225 86.13571167 C-39.0056565 86.13639149 -41.33901267 86.134551 -43.67236328 86.13037109 C-47.22302567 86.1250405 -50.77356039 86.13031229 -54.32421875 86.13671875 C-56.59635444 86.13605753 -58.86849006 86.13477548 -61.140625 86.1328125 C-62.1940509 86.13483673 -63.24747681 86.13686096 -64.33282471 86.13894653 C-70.30351785 86.12020541 -76.07857583 85.77460043 -82 85 C-78.19125421 82.93216385 -75.18081448 82.61515274 -70.828125 82.3828125 C-70.12697571 82.34527863 -69.42582642 82.30774475 -68.70343018 82.26907349 C-61.44642267 81.91325498 -54.1902817 81.84835897 -46.92578125 81.86962891 C-44.73690992 81.87503231 -42.54824056 81.8696159 -40.359375 81.86328125 C-32.19763959 81.85984212 -24.12403134 82.14473627 -16 83 C-16 82.34 -16 81.68 -16 81 C-16.91676514 80.90493164 -17.83353027 80.80986328 -18.77807617 80.71191406 C-28.00278159 79.63627705 -36.4615069 77.65201425 -45.3125 74.75 C-47.18566895 74.15046509 -47.18566895 74.15046509 -49.09667969 73.53881836 C-51.58215862 72.74064784 -54.06579105 71.93669999 -56.54736328 71.12646484 C-59.64030331 70.11735543 -62.73841794 69.1271666 -65.83984375 68.14453125 C-67.47694658 67.61838107 -69.11369885 67.09113809 -70.75 66.5625 C-71.85661987 66.21106934 -71.85661987 66.21106934 -72.9855957 65.85253906 C-74.67734122 65.29296329 -76.34275977 64.65473869 -78 64 C-78.33 63.34 -78.66 62.68 -79 62 C-78.47752686 62.10666992 -77.95505371 62.21333984 -77.41674805 62.32324219 C-72.6355838 63.28993928 -67.84916156 64.21966302 -63.05349731 65.11193848 C-60.07252733 65.66932445 -57.09418349 66.24011811 -54.1159668 66.81201172 C-52.59026682 67.10211302 -51.06356856 67.3870163 -49.53588867 67.66650391 C-39.81749452 69.44986853 -31.01631528 71.85572485 -21.94799805 75.81933594 C-19.06511379 77.18589415 -19.06511379 77.18589415 -16 77 C-16.9115686 76.54113403 -16.9115686 76.54113403 -17.84155273 76.07299805 C-30.32371083 69.75843921 -42.40880481 63.21135547 -53.99169922 55.35986328 C-56.11251348 53.92381472 -58.24424721 52.50522065 -60.37890625 51.08984375 C-63.92612774 48.73668009 -67.46528857 46.37190971 -71 44 C-70.01 43.505 -70.01 43.505 -69 43 C-66.36816406 44.05712891 -66.36816406 44.05712891 -63.015625 45.7265625 C-62.41150284 46.02600769 -61.80738068 46.32545288 -61.18495178 46.63397217 C-59.20184529 47.62172357 -57.2257141 48.622553 -55.25 49.625 C-54.24373062 50.13054413 -54.24373062 50.13054413 -53.21713257 50.64630127 C-41.45239408 56.56177229 -30.07525535 62.98313724 -18.8840332 69.93115234 C-16.88407783 71.1459029 -16.88407783 71.1459029 -14 72 C-14.82242188 71.32195312 -15.64484375 70.64390625 -16.4921875 69.9453125 C-25.60904825 62.36896252 -34.17215981 54.46463155 -41.86328125 45.4140625 C-43.71635293 43.32046414 -45.6112616 41.29388386 -47.54296875 39.2734375 C-48.18137695 38.60272217 -48.81978516 37.93200684 -49.47753906 37.2409668 C-50.77165899 35.88510697 -52.07169829 34.53486942 -53.37792969 33.19067383 C-53.97379883 32.56443115 -54.56966797 31.93818848 -55.18359375 31.29296875 C-55.72556396 30.7311792 -56.26753418 30.16938965 -56.82592773 29.59057617 C-58 28 -58 28 -58 25 C-57.33355469 25.61746094 -56.66710937 26.23492187 -55.98046875 26.87109375 C-51.40362907 31.07666532 -46.83918729 35.17150822 -41.9375 39 C-36.53898651 43.35464508 -31.65254272 48.16045505 -26.75 53.0625 C-25.99323975 53.81853516 -25.23647949 54.57457031 -24.45678711 55.35351562 C-19.77803375 60.07801314 -15.31282465 64.93940108 -11 70 C-12.32198645 66.33240987 -13.94714414 63.46849892 -16.26171875 60.33984375 C-19.8788788 55.28030956 -22.89294202 50.04727899 -25.8125 44.5625 C-26.3180542 43.62180664 -26.8236084 42.68111328 -27.34448242 41.71191406 C-28.38491134 39.77255586 -29.42243415 37.83163575 -30.45703125 35.88916016 C-31.96888455 33.05826269 -33.49818662 30.23742441 -35.03125 27.41796875 C-35.95902541 25.69568514 -36.88614038 23.97304554 -37.8125 22.25 C-38.25118408 21.4463501 -38.68986816 20.6427002 -39.1418457 19.81469727 C-40.15642622 17.90811837 -41.08750224 15.95748934 -42 14 C-41.67 13.34 -41.34 12.68 -41 12 C-7 54.43410853 -7 54.43410853 -7 69 C-6.34 69 -5.68 69 -5 69 C-5.42410156 67.88109375 -5.84820312 66.7621875 -6.28515625 65.609375 C-13.76287999 45.36617006 -19.03089196 24.37757786 -22 3 C-20 4 -20 4 -18.8425293 6.93310547 C-18.411689 8.24183695 -17.98957077 9.5534584 -17.57421875 10.8671875 C-17.34611008 11.5695755 -17.1180014 12.2719635 -16.88298035 12.99563599 C-16.14249791 15.28607782 -15.41419835 17.58015058 -14.6875 19.875 C-14.43977844 20.65020996 -14.19205688 21.42541992 -13.93682861 22.22412109 C-3.61279031 54.53993046 -3.61279031 54.53993046 -3 67 C-2.34 67 -1.68 67 -1 67 C-1.16226074 66.02869141 -1.32452148 65.05738281 -1.49169922 64.05664062 C-2.10682015 59.72759993 -2.14397519 55.45997292 -2.1328125 51.09375 C-2.13376923 50.25138794 -2.13472595 49.40902588 -2.13571167 48.5411377 C-2.13638937 46.76277593 -2.13456381 44.98441164 -2.13037109 43.20605469 C-2.12507095 40.53574799 -2.13030213 37.86561365 -2.13671875 35.1953125 C-2.14800048 9.65585943 -2.14800048 9.65585943 0 0 Z " fill="#1D3D49" transform="translate(240,149)"/>
<path d="M0 0 C11.21155304 9.23638717 30.32637472 26.00132856 32.3203125 41.63671875 C31.91942871 44.75090135 31.00458773 45.73408896 28.75 47.875 C28.14671875 48.46796875 27.5434375 49.0609375 26.921875 49.671875 C24.911811 51.19167949 23.46254736 51.71094336 21 52.125 C19.02650598 49.90481923 18.04966251 48.62162509 17.75 45.625 C18 43.125 18 43.125 18.6875 41.125 C19.15697603 38.12035338 17.61986809 36.5871995 16 34.125 C16 33.465 16 32.805 16 32.125 C14.88625 32.00125 13.7725 31.8775 12.625 31.75 C9 31.125 9 31.125 7 29.125 C6.69598816 27.50923337 6.45333192 25.88149659 6.25 24.25 C5.52773053 20.36990124 5.27523086 19.38742942 2.3125 16.5625 C-1.18088243 15.04650385 -4.24761335 14.63012897 -8 14.125 C-10 11.125 -10 11.125 -10.8125 8.125 C-11.78457931 5.06764053 -11.78457931 5.06764053 -14 3.1875 C-17.86337105 1.81922275 -20.71390935 2.36765824 -24.6953125 3.09375 C-27 3.125 -27 3.125 -28.7421875 1.84375 C-30 0.125 -30 0.125 -31 -2.875 C-33.50856069 -4.37324792 -36.15015276 -5.25281113 -39 -5.875 C-41.89014058 -5.03838036 -42.86808184 -4.00691816 -45 -1.875 C-47.4375 -2 -47.4375 -2 -50 -2.875 C-50.65162109 -3.87660156 -50.65162109 -3.87660156 -51.31640625 -4.8984375 C-52.86219965 -7.12409341 -52.86219965 -7.12409341 -55.59375 -7.40625 C-56.5528125 -7.3959375 -57.511875 -7.385625 -58.5 -7.375 C-59.4590625 -7.3853125 -60.418125 -7.395625 -61.40625 -7.40625 C-64.68797238 -6.73408999 -65.17716618 -5.5696239 -67 -2.875 C-70.0625 -2.5 -70.0625 -2.5 -73 -2.875 C-73.99 -3.865 -73.99 -3.865 -75 -4.875 C-80.87482277 -5.31772098 -80.87482277 -5.31772098 -86 -2.875 C-87.34270821 -0.88128175 -88.67653494 1.1184562 -90 3.125 C-93 4.125 -93 4.125 -95.75 2.9375 C-99.18132684 2.07966829 -99.75386751 2.07691764 -102.75 3.5625 C-106.55413992 6.00147811 -106.96141451 8.81087567 -108 13.125 C-110.49063673 15.17088017 -111.71785118 15.14901267 -114.9375 14.875 C-118.24232792 14.83579715 -118.24232792 14.83579715 -120.8125 17.625 C-123.54792882 21.28385383 -123.62750179 24.65502148 -124 29.125 C-126 31.125 -126 31.125 -128.875 31.875 C-133.07083974 33.5533359 -134.16065553 35.00486839 -136 39.125 C-136.02542549 42.53201562 -135.6087067 45.77711317 -135 49.125 C-135.94875 49.49625 -136.8975 49.8675 -137.875 50.25 C-141.18774664 51.85736118 -141.18774664 51.85736118 -142.4375 55 C-143.02307281 58.25318229 -142.84629865 59.97061413 -142 63.125 C-141.125 66.6875 -141.125 66.6875 -141 70.125 C-141.804375 70.723125 -142.60875 71.32125 -143.4375 71.9375 C-146.18700705 73.83746905 -146.18700705 73.83746905 -146.51171875 76.484375 C-146.62456547 79.17713117 -146.5908636 81.49338443 -146 84.125 C-143.57327433 85.91469026 -143.57327433 85.91469026 -141 87.125 C-140.40412423 91.21100528 -140.68432616 92.65148925 -143 96.125 C-143.38499891 97.78049531 -143.72793135 99.4472433 -144 101.125 C-145.2549347 100.5523599 -146.50374378 99.96628945 -147.75 99.375 C-148.44609375 99.05015625 -149.1421875 98.7253125 -149.859375 98.390625 C-152.44248794 96.86338305 -154.091614 95.4584802 -156 93.125 C-156.51757812 90.1550293 -156.51757812 90.1550293 -156.53125 86.69921875 C-156.53946777 85.43464844 -156.54768555 84.17007813 -156.55615234 82.8671875 C-156.53984878 81.51559373 -156.52108738 80.1640276 -156.5 78.8125 C-156.49446106 78.13171387 -156.48892212 77.45092773 -156.48321533 76.74951172 C-156.38628531 66.6544741 -155.75967885 57.60032769 -152 48.125 C-151.57589844 46.96871094 -151.15179688 45.81242187 -150.71484375 44.62109375 C-145.4920045 31.3675936 -137.87729299 20.32437863 -128 10.125 C-127.4121875 9.45210937 -126.824375 8.77921875 -126.21875 8.0859375 C-94.9645154 -26.32113655 -35.63103641 -27.17685106 0 0 Z " fill="#173844" transform="translate(299,153.875)"/>
<path d="M0 0 C1.76296107 2.64444161 3.13815569 5.28319105 4.51220703 8.14013672 C9.0411704 17.52715768 14.36750548 26.2440535 20 35 C25.89058806 44.20018471 30.58100711 52.73754484 29 64 C26.74848031 71.65771103 22.27423641 78.62457358 15.8125 83.3125 C8.75214865 86.81143518 0.73795068 89.38549539 -7 87 C-16.22082612 83.68464679 -21.98371281 77.99572566 -27 69.6875 C-29.5083863 60.43782551 -28.6874601 50.65362062 -24.02148438 42.234375 C-20.42016357 36.1139956 -16.48864596 30.2024139 -12.51953125 24.31640625 C-8.01782677 17.58242858 -4.54416529 11.1323369 -1.875 3.44921875 C-1 1 -1 1 0 0 Z " fill="#549BB7" transform="translate(285,282)"/>
<path d="M0 0 C20.58923404 -0.27469753 20.58923404 -0.27469753 29.29296875 1.03710938 C29.29296875 1.36710937 29.29296875 1.69710937 29.29296875 2.03710938 C28.73649658 2.04645508 28.18002441 2.05580078 27.60668945 2.06542969 C-2.60049047 2.69545368 -34.48923111 9.11810133 -57.70703125 30.03710938 C-58.53332031 30.75769531 -59.35960937 31.47828125 -60.2109375 32.22070312 C-62.74498768 34.46018413 -65.24522366 36.7183426 -67.70703125 39.03710938 C-68.5266333 39.8042627 -68.5266333 39.8042627 -69.36279297 40.58691406 C-88.66462801 59.17464997 -101.42169145 89.07114827 -103.2421875 115.65039062 C-103.32919922 116.89755859 -103.41621094 118.14472656 -103.50585938 119.4296875 C-103.59287109 120.72326172 -103.67988281 122.01683594 -103.76953125 123.34960938 C-103.86041016 124.66251953 -103.95128906 125.97542969 -104.04492188 127.328125 C-104.26850905 130.56425515 -104.48815105 133.80065745 -104.70703125 137.03710938 C-109.32703125 136.37710938 -113.94703125 135.71710938 -118.70703125 135.03710938 C-120.15325798 97.91728998 -108.06529978 66.1998994 -83.46484375 38.51367188 C-73.68196807 28.30077969 -62.19037034 20.52776355 -49.70703125 14.03710938 C-48.546875 13.42996094 -47.38671875 12.8228125 -46.19140625 12.19726562 C-31.6538532 4.87991825 -16.29318837 0.2233554 0 0 Z " fill="#183945" transform="translate(230.70703125,105.962890625)"/>
<path d="M0 0 C2.97 0 5.94 0 9 0 C10.5093587 7.00139498 11.51562378 13.86730133 12.125 21 C12.21136719 21.92039062 12.29773438 22.84078125 12.38671875 23.7890625 C12.92670521 29.87462423 13.10433945 35.89200146 13 42 C10.375 42.75 10.375 42.75 7 43 C1.55358157 39.95757234 -2.71552118 35.67799161 -7.1875 31.375 C-8.59580243 30.02670683 -10.00588659 28.6802716 -11.41796875 27.3359375 C-12.03438232 26.74345215 -12.6507959 26.1509668 -13.28588867 25.54052734 C-15.12734863 23.81138012 -15.12734863 23.81138012 -18 22 C-17.67 29.59 -17.34 37.18 -17 45 C-21.455 45.495 -21.455 45.495 -26 46 C-27.80854973 42.38290053 -28.31506584 40.73983344 -28.6328125 36.88671875 C-28.7167627 35.89220703 -28.80071289 34.89769531 -28.88720703 33.87304688 C-28.96567871 32.82181641 -29.04415039 31.77058594 -29.125 30.6875 C-29.20991699 29.61693359 -29.29483398 28.54636719 -29.38232422 27.44335938 C-29.99328683 19.27588335 -30.23616015 11.18688521 -30 3 C-26.08009819 2.7003281 -23.69465713 2.589746 -20.26171875 4.6171875 C-19.41222656 5.36226562 -18.56273437 6.10734375 -17.6875 6.875 C-16.75292969 7.68839844 -15.81835938 8.50179688 -14.85546875 9.33984375 C-11.16701498 12.7760093 -7.59226867 16.30444857 -4.09375 19.93359375 C-1.98024375 22.15015249 -1.98024375 22.15015249 1 24 C0.9278125 23.27296875 0.855625 22.5459375 0.78125 21.796875 C0.10841208 14.50779752 -0.11677435 7.31785934 0 0 Z " fill="#183945" transform="translate(233,19)"/>
<path d="M0 0 C3.81271791 3.17726492 7.45516471 6.399999 10.9375 9.9375 C13.47800191 12.5169368 16.05837701 14.96306447 18.8125 17.3125 C24.16567997 21.90704568 29.0563002 26.97451105 34 32 C31.56215565 35.65676653 30.13609434 36.05490741 26.015625 36.99609375 C24 37 24 37 21.4375 34.5625 C20.633125 33.716875 19.82875 32.87125 19 32 C13.45533648 31.88910673 8.56634076 34.15343331 3.453125 36.16015625 C1 37 1 37 -2 37 C-1.94199219 37.60328125 -1.88398438 38.2065625 -1.82421875 38.828125 C-1.45454545 45.37662338 -1.45454545 45.37662338 -4.1875 48.5 C-6.90086961 49.94713046 -9.00475176 50.47646081 -12 51 C-12.11507949 41.45022862 -11.81579393 32.02676999 -11.125 22.5 C-11.00705078 20.66695312 -11.00705078 20.66695312 -10.88671875 18.796875 C-10.80292969 17.61609375 -10.71914062 16.4353125 -10.6328125 15.21875 C-10.55949707 14.16623047 -10.48618164 13.11371094 -10.41064453 12.02929688 C-9.9728136 8.79944777 -9.21616813 6.02230952 -8 3 C-6.0546875 1.7578125 -6.0546875 1.7578125 -3.875 1.125 C-3.15054688 0.90070312 -2.42609375 0.67640625 -1.6796875 0.4453125 C-1.12539062 0.29835937 -0.57109375 0.15140625 0 0 Z " fill="#183945" transform="translate(166,32)"/>
<path d="M0 0 C2 3 2 3 1.9921875 4.93359375 C0.47435675 8.09474519 -1.9324556 9.23134827 -4.875 11.0625 C-9.87803734 14.0096665 -9.87803734 14.0096665 -14 18 C-13.76956136 20.65466049 -13.76956136 20.65466049 -13 23 C-7.92900448 22.53559568 -5.25905689 21.03444721 -1.3125 17.875 C1.51171875 15.6171875 1.51171875 15.6171875 4 14 C4.99 14.33 5.98 14.66 7 15 C8.1875 18.0625 8.1875 18.0625 9 21 C6.87941855 22.67257128 4.75395924 24.33815418 2.625 26 C2.02171875 26.47695312 1.4184375 26.95390625 0.796875 27.4453125 C-3.7734375 31 -3.7734375 31 -6 31 C-5.505 31.94875 -5.01 32.8975 -4.5 33.875 C-3 37 -3 37 -3 39 C4.21253337 35.669958 10.61175354 31.71642877 17 27 C19.62187494 28.04874998 20.79371361 28.64931313 22.25 31.125 C22.4975 31.74375 22.745 32.3625 23 33 C14.37825434 40.20244109 5.2173882 46.59181231 -4 53 C-8.44385609 48.85405605 -11.9150013 44.25270836 -15.4375 39.3125 C-16.29637817 38.11246338 -16.29637817 38.11246338 -17.17260742 36.88818359 C-28 21.64482234 -28 21.64482234 -28 16 C-26.56640625 14.52368164 -26.56640625 14.52368164 -24.5625 13.16015625 C-23.46615234 12.4012207 -23.46615234 12.4012207 -22.34765625 11.62695312 C-21.57292969 11.11068359 -20.79820313 10.59441406 -20 10.0625 C-19.25621094 9.55009766 -18.51242188 9.03769531 -17.74609375 8.50976562 C-15.51305288 6.98158896 -13.25961257 5.48852962 -11 4 C-9.89011719 3.24372314 -9.89011719 3.24372314 -8.7578125 2.47216797 C-8.05398437 2.00568848 -7.35015625 1.53920898 -6.625 1.05859375 C-5.68527344 0.42715454 -5.68527344 0.42715454 -4.7265625 -0.21704102 C-3 -1 -3 -1 0 0 Z " fill="#193A46" transform="translate(128,53)"/>
<path d="M0 0 C6.658904 3.04025684 14.12306658 9.10068745 17 16 C17.73135783 20.88040703 17.68163148 25.25805289 15.875 29.875 C11.65505911 34.65759968 7.56787816 38.01706778 1 38.5 C-7.58226267 38.42999786 -14.87627217 31.4617032 -21 26 C-18.28444653 20.9966176 -14.68643107 16.79444499 -11.0625 12.4375 C-10.44181641 11.68275391 -9.82113281 10.92800781 -9.18164062 10.15039062 C-6.25493617 6.61278727 -3.34298967 3.15866442 0 0 Z " fill="#FAFAFA" transform="translate(370,66)"/>
<path d="M0 0 C0.33 2.64 0.66 5.28 1 8 C-0.6396875 8.8353125 -0.6396875 8.8353125 -2.3125 9.6875 C-5.7431475 11.69449824 -7.57963348 13.15665529 -9 17 C-9.620917 21.16502752 -10.00306256 25.14990683 -7.9453125 28.9453125 C-5.56468109 31.86123382 -3.60315241 33.79816427 0.171875 34.2734375 C6.2498625 34.53202748 6.2498625 34.53202748 11.5 31.8125 C15.02738124 27.84419611 15.93670485 24.97878754 16.375 19.8125 C17 16 17 16 18.8125 14.5 C21 14 21 14 25 14 C27.18586603 18.37173205 26.27711138 23.78556239 25.0625 28.375 C22.59007833 35.02974244 17.79647338 40.97402594 11.50390625 44.33203125 C5.18966176 46.48931603 -1.01775432 46.80423045 -7.1640625 44.01953125 C-12.93905628 40.67782136 -17.40318632 36.24146445 -20 30 C-21.16065601 21.43003991 -19.41298455 14.7186784 -14.38671875 7.76953125 C-6.28348427 -2.09449476 -6.28348427 -2.09449476 0 0 Z " fill="#193A46" transform="translate(61,124)"/>
<path d="M0 0 C1 1 1 1 1.26147461 3.23242188 C0.93335106 6.70544573 -0.21977763 8.40921086 -2.18359375 11.28125 C-2.86035156 12.28285156 -3.53710938 13.28445312 -4.234375 14.31640625 C-4.96140625 15.36699219 -5.6884375 16.41757813 -6.4375 17.5 C-7.16582031 18.57121094 -7.89414062 19.64242187 -8.64453125 20.74609375 C-10.75139153 23.83890466 -12.87321486 26.92086867 -15 30 C-16.022429 31.48938184 -17.04460871 32.97893488 -18.06640625 34.46875 C-20.02956767 37.32289333 -22.00750198 40.16622504 -24 43 C-24.99 42.34 -25.98 41.68 -27 41 C-26.65292382 37.26893102 -26.30405423 35.36665363 -23.875 32.4375 C-21.75888882 30.22892635 -21.75888882 30.22892635 -22.09765625 27.859375 C-23.36609159 23.83991754 -25.42518219 20.4292476 -27.5625 16.8125 C-28.40093151 15.38373128 -29.23575534 13.9528374 -30.06640625 12.51953125 C-30.43709229 11.89151611 -30.80777832 11.26350098 -31.18969727 10.61645508 C-32 9 -32 9 -32 7 C-36.29 7 -40.58 7 -45 7 C-45.66 5.68 -46.32 4.36 -47 3 C-13.35121396 -0.89930457 -13.35121396 -0.89930457 0 0 Z " fill="#1A3B47" transform="translate(438,135)"/>
<path d="M0 0 C3.93048519 2.71315778 4.89242976 4.64380853 6.3125 9.25 C6.51125732 9.88172119 6.71001465 10.51344238 6.91479492 11.16430664 C7.62501309 13.43845037 8.31219271 15.7189793 9 18 C9.62430143 20.03537065 10.24934515 22.07051372 10.875 24.10546875 C12.59981849 29.73204428 14.30552006 35.36421996 16 41 C17.83244713 38.2513293 19.01349282 35.78137571 20.27734375 32.74609375 C20.92413086 31.21758789 20.92413086 31.21758789 21.58398438 29.65820312 C22.48713916 27.50913783 23.38557249 25.35808229 24.27929688 23.20507812 C24.92801758 21.67850586 24.92801758 21.67850586 25.58984375 20.12109375 C25.98034912 19.1870874 26.37085449 18.25308105 26.77319336 17.29077148 C28 15 28 15 31 13 C31.66 13.33 32.32 13.66 33 14 C32.54760096 21.23838457 29.54238674 27.41123165 26.6875 34 C26.20087891 35.14984375 25.71425781 36.2996875 25.21289062 37.484375 C22.76637845 43.2005865 20.24666225 48.69429066 17 54 C15.14086914 53.38891602 15.14086914 53.38891602 13 52 C11.76733398 49.25366211 11.76733398 49.25366211 10.74609375 45.77734375 C10.36646484 44.51599609 9.98683594 43.25464844 9.59570312 41.95507812 C9.20912877 40.61603158 8.82306445 39.27683769 8.4375 37.9375 C8.04898194 36.62521912 7.65902214 35.31336418 7.26757812 34.00195312 C6.51524822 31.47921087 5.7691751 28.95494092 5.02685547 26.42919922 C3.77588133 22.25155233 2.41413 18.12492233 1 14 C-1.35826702 16.35826702 -2.03901975 18.30454594 -3.2421875 21.41015625 C-3.66886719 22.48201172 -4.09554688 23.55386719 -4.53515625 24.65820312 C-5.42867444 26.92846874 -6.31409702 29.20193722 -7.19140625 31.47851562 C-7.62066406 32.54908203 -8.04992187 33.61964844 -8.4921875 34.72265625 C-8.87745605 35.71015869 -9.26272461 36.69766113 -9.65966797 37.71508789 C-11 40 -11 40 -13.15673828 40.82983398 C-13.76501465 40.88598877 -14.37329102 40.94214355 -15 41 C-16.38593749 37.2734777 -15.58946325 35.17657078 -14.12109375 31.5625 C-13.69376953 30.50160156 -13.26644531 29.44070312 -12.82617188 28.34765625 C-12.36791016 27.24292969 -11.90964844 26.13820313 -11.4375 25 C-11.00630859 23.92621094 -10.57511719 22.85242188 -10.13085938 21.74609375 C-7.1019436 14.31026211 -3.68801051 7.13031425 0 0 Z " fill="#1B3C48" transform="translate(313,30)"/>
<path d="M0 0 C4.73801652 0.48527171 7.80004899 2.69263791 11.4375 5.5625 C12.01081055 6.00924072 12.58412109 6.45598145 13.17480469 6.91625977 C18.39574639 11.1029904 22.84741821 15.54225462 25 22 C25.66043326 29.30807296 25.77421567 36.07838995 21 42 C15.14410335 47.28882365 10.89407251 49.45752003 2.98828125 49.32421875 C-7.58227386 48.17734807 -16.10217636 39.49806527 -24 33 C-22.41549185 28.10500161 -19.58812289 24.46884093 -16.5 20.4375 C-15.97116211 19.73947266 -15.44232422 19.04144531 -14.89746094 18.32226562 C-10.11672072 12.05666355 -5.12489797 5.98660648 0 0 Z M0.0625 8.625 C-3.46963082 12.25379966 -6.61770313 16.15296334 -9.75 20.125 C-10.22171631 20.7226416 -10.69343262 21.3202832 -11.17944336 21.93603516 C-13.69712103 25.17516839 -15.97404433 28.42081166 -18 32 C-7.43910056 41.46330808 -7.43910056 41.46330808 5.86328125 44.3203125 C11.62131767 43.45713337 15.26435513 40.26930842 19 36 C20.7351668 30.79449959 21.32657138 24.87592574 18.9765625 19.78125 C15.19277562 14.51321522 10.17123432 9.88876821 5 6 C2.59197143 5.77788967 2.59197143 5.77788967 0.0625 8.625 Z " fill="#1D3D49" transform="translate(367,60)"/>
<path d="M0 0 C6.20015136 4.34010595 11.630474 9.26946302 17.07470703 14.50463867 C17.94264893 15.32992065 17.94264893 15.32992065 18.828125 16.171875 C19.6001123 16.9158252 19.6001123 16.9158252 20.38769531 17.67480469 C22.1519013 19.12485164 23.92840627 20.05346693 26 21 C27.96143601 19.06555623 29.91920394 17.12763179 31.875 15.1875 C32.43058594 14.64029297 32.98617187 14.09308594 33.55859375 13.52929688 C34.09355469 12.99755859 34.62851563 12.46582031 35.1796875 11.91796875 C35.67194824 11.43094482 36.16420898 10.9439209 36.67138672 10.44213867 C38.22588489 8.82996499 38.22588489 8.82996499 40 6 C41.875 6.6875 41.875 6.6875 44 8 C44.7211874 9.64380989 45.39401025 11.31032588 46 13 C45.18208984 13.89138672 45.18208984 13.89138672 44.34765625 14.80078125 C39.34284922 20.30179137 34.56511498 25.92143199 29.9453125 31.75 C28 34 28 34 25 36 C24.29875 35.35933594 23.5975 34.71867187 22.875 34.05859375 C16.51669128 28.25693916 16.51669128 28.25693916 10.0625 22.5625 C4.60527875 17.82303436 -0.68558156 12.89812233 -6 8 C-4.44805246 4.67240077 -2.69378051 2.51419515 0 0 Z " fill="#183A45" transform="translate(71,99)"/>
<path d="M0 0 C3.99217072 2.14963039 6.32030168 3.79304917 8 8 C8.72320767 12.62516534 8.4121396 16.14401775 6.375 20.375 C2.97464693 24.13328497 0.0083757 25.70711188 -5 26.4375 C-8.88576111 25.8708265 -10.97792261 24.47260877 -14 22 C-16.5506586 17.81587169 -16.93279256 13.77654122 -16 9 C-12.34441308 2.709542 -7.42614013 -0.89113682 0 0 Z " fill="#1C3D49" transform="translate(143,427)"/>
<path d="M0 0 C13.76393917 -0.41708907 13.76393917 -0.41708907 19.7578125 4.41796875 C22.16323634 7.48148025 22.10347799 11.22305352 22 15 C20.38282687 19.76167644 18.18847431 22.27489911 14 25 C9.27267379 25.52005789 4.77279398 25.1784222 0 25 C0 16.75 0 8.5 0 0 Z " fill="#173944" transform="translate(235,456)"/>
<path d="M0 0 C1.953125 0.5234375 1.953125 0.5234375 4 2 C4.46709352 4.66482841 4.69572473 6.95070966 4.75 9.625 C4.77964844 10.33140625 4.80929688 11.0378125 4.83984375 11.765625 C4.91055357 13.50980047 4.95754035 15.25490827 5 17 C7.97 13.37 10.94 9.74 14 6 C15.32 6.33 16.64 6.66 18 7 C18.495 14.92 18.495 14.92 19 23 C20.216875 21.370625 21.43375 19.74125 22.6875 18.0625 C26.31826923 13.20096154 26.31826923 13.20096154 29.76953125 12.18359375 C30.50558594 12.12300781 31.24164063 12.06242187 32 12 C30.54449811 16.08140735 28.54840996 19.41518224 26.125 23 C25.44695312 24.010625 24.76890625 25.02125 24.0703125 26.0625 C22.14166228 28.79899994 20.12199915 31.41173198 18 34 C16.35 33.67 14.7 33.34 13 33 C12.67 27.72 12.34 22.44 12 17 C10.783125 18.629375 9.56625 20.25875 8.3125 21.9375 C4.70182292 26.77213542 4.70182292 26.77213542 1.29296875 27.87890625 C0.53628906 27.91886719 -0.22039062 27.95882813 -1 28 C-2.74439983 26.25560017 -2.13196943 24.00060451 -2.13891602 21.67822266 C-2.13432373 20.95940918 -2.12973145 20.2405957 -2.125 19.5 C-2.12234131 18.77474121 -2.11968262 18.04948242 -2.11694336 17.30224609 C-1.99951838 3.99903677 -1.99951838 3.99903677 0 0 Z " fill="#1E3E4A" transform="translate(156,435)"/>
<path d="M0 0 C0.33 0 0.66 0 1 0 C1.15855469 0.73605469 1.31710937 1.47210938 1.48046875 2.23046875 C3.36019963 10.24839736 3.36019963 10.24839736 9 16 C11.95055847 17.21493584 14.91922033 18.17443159 18 19 C18 19.66 18 20.32 18 21 C16.453125 21.3403125 16.453125 21.3403125 14.875 21.6875 C10.79557244 22.9129732 7.6304732 24.59628331 5 28 C3.0638951 31.90787489 1.47812428 35.89918618 0 40 C-0.33 40 -0.66 40 -1 40 C-1.15855469 39.34773438 -1.31710937 38.69546875 -1.48046875 38.0234375 C-3.04840523 32.15017266 -4.41548731 28.0861961 -9 24 C-11.93718428 22.70171518 -14.88615991 21.77337205 -18 21 C-18 20.34 -18 19.68 -18 19 C-17.25234375 18.78085938 -16.5046875 18.56171875 -15.734375 18.3359375 C-9.49171307 16.36610534 -9.49171307 16.36610534 -4.5 12.3125 C-2.67825428 8.28947819 -1.24231501 4.23516482 0 0 Z " fill="#589EB9" transform="translate(299,100)"/>
<path d="M0 0 C4.55861703 0.05674627 8.88126523 1.32320992 13 3.25 C14.71075517 6.67151034 14.41969452 10.49982638 14 14.25 C13.46375 14.91 12.9275 15.57 12.375 16.25 C10.74346635 18.15664671 10.74346635 18.15664671 11.24609375 20.484375 C11.7599494 22.76660286 12.33404027 25.00777588 13 27.25 C10.75 27.125 10.75 27.125 8 26.25 C6.65729179 24.25628175 5.32346506 22.2565438 4 20.25 C2.68 20.25 1.36 20.25 0 20.25 C-0.33 21.9 -0.66 23.55 -1 25.25 C-2.65 25.25 -4.3 25.25 -6 25.25 C-6.09406264 19.67522066 -5.7884702 14.33708172 -5.0625 8.8125 C-4.97548828 8.09384766 -4.88847656 7.37519531 -4.79882812 6.63476562 C-3.99548139 0.33295678 -3.99548139 0.33295678 0 0 Z " fill="#1C3C48" transform="translate(216,453.75)"/>
<path d="M0 0 C5.57709074 0.29265094 8.96632569 2.61799333 13.3125 5.8125 C14.26092773 6.47088867 14.26092773 6.47088867 15.22851562 7.14257812 C19.76804711 10.41707404 19.76804711 10.41707404 20.80932617 13.03393555 C20.87224854 13.68273682 20.9351709 14.33153809 21 15 C19 17 19 17 15.3046875 17.1953125 C13.82799892 17.182009 12.35137642 17.15814835 10.875 17.125 C10.12089844 17.11597656 9.36679687 17.10695313 8.58984375 17.09765625 C6.72642746 17.0740687 4.86317407 17.03819719 3 17 C5.97 19.31 8.94 21.62 12 24 C11.67 25.65 11.34 27.3 11 29 C6.11557829 27.38766662 2.30335857 24.61835168 -1.8125 21.625 C-2.85180664 20.90183594 -2.85180664 20.90183594 -3.91210938 20.1640625 C-4.56630859 19.6896875 -5.22050781 19.2153125 -5.89453125 18.7265625 C-6.78942261 18.08581787 -6.78942261 18.08581787 -7.70239258 17.43212891 C-9 16 -9 16 -9 12 C-5.828262 10.414131 -2.36486178 10.62133555 1.125 10.4375 C2.25615234 10.37272461 2.25615234 10.37272461 3.41015625 10.30664062 C5.27321888 10.2005168 7.13658524 10.09974999 9 10 C8.36191406 9.60167969 7.72382813 9.20335937 7.06640625 8.79296875 C6.24011719 8.26316406 5.41382813 7.73335938 4.5625 7.1875 C3.73878906 6.66542969 2.91507812 6.14335937 2.06640625 5.60546875 C0 4 0 4 -1 1 C-0.67 0.67 -0.34 0.34 0 0 Z " fill="#1B3C48" transform="translate(408,362)"/>
<path d="M0 0 C1.12696132 0.96016428 2.25310749 1.92128538 3.37890625 2.8828125 C4.00611572 3.41793457 4.6333252 3.95305664 5.27954102 4.50439453 C8.71163574 7.48793537 10.17161689 9.43631679 10.5 14 C10.36624967 17.26472402 10.13463848 17.84556174 7.875 20.4375 C4.61001493 22.21194841 2.73507109 23.07470142 -1 23 C-3.56479832 21.5934977 -5.78029818 19.89791072 -8 18 C-9.98 18.99 -11.96 19.98 -14 21 C-14.66 20.34 -15.32 19.68 -16 19 C-15.69371213 15.45600743 -14.10501726 13.74942859 -11.62109375 11.328125 C-10.94755859 10.66425781 -10.27402344 10.00039063 -9.58007812 9.31640625 C-8.87302734 8.63449219 -8.16597656 7.95257813 -7.4375 7.25 C-6.72658203 6.55261719 -6.01566406 5.85523438 -5.28320312 5.13671875 C-3.52869286 3.4175342 -1.76756648 1.70574128 0 0 Z " fill="#1A3B47" transform="translate(98,392)"/>
<path d="M0 0 C4.39854443 0.4388339 6.25693999 3.11763152 9.0625 6.3125 C10.34833984 7.76076172 10.34833984 7.76076172 11.66015625 9.23828125 C12.43230469 10.14964844 13.20445312 11.06101562 14 12 C14.61746094 12.69480469 15.23492187 13.38960938 15.87109375 14.10546875 C17 16 17 16 16.6875 18.25 C16.460625 18.8275 16.23375 19.405 16 20 C10.147205 19.48517081 4.6702363 18.54642808 -1 17 C1.06007659 20.60513403 3.3513141 23.80331012 6 27 C5.34 28.32 4.68 29.64 4 31 C-2.56742098 25.82990264 -10.30383674 19.08848978 -13 11 C-12.34 10.34 -11.68 9.68 -11 9 C-8.3203125 9.2421875 -8.3203125 9.2421875 -5.125 9.875 C-1.594865 10.56021048 1.38309947 11 5 11 C4.55527344 10.45730469 4.11054688 9.91460937 3.65234375 9.35546875 C3.08644531 8.64003906 2.52054687 7.92460937 1.9375 7.1875 C1.36902344 6.47980469 0.80054688 5.77210938 0.21484375 5.04296875 C-0.18605469 4.36878906 -0.58695312 3.69460938 -1 3 C-0.67 2.01 -0.34 1.02 0 0 Z " fill="#1A3B46" transform="translate(375,402)"/>
<path d="M0 0 C7.53736625 0.0612794 15.03525001 1.227624 22.5 2.1875 C23.203125 4.453125 23.203125 4.453125 23.5 7.1875 C22.234375 9.109375 22.234375 9.109375 20.25 10.9375 C19.52296875 11.61296875 18.7959375 12.2884375 18.046875 12.984375 C13.61205387 16.82063131 9.09185434 20.54102743 4.5 24.1875 C3.84 23.8575 3.18 23.5275 2.5 23.1875 C2.7165625 22.1665625 2.7165625 22.1665625 2.9375 21.125 C4.77479347 14.02371394 4.77479347 14.02371394 3.5 7.1875 C1.50428677 6.50810826 -0.49594773 5.84188441 -2.5 5.1875 C-3.875 3.0625 -3.875 3.0625 -4.5 1.1875 C-3.5 0.1875 -3.5 0.1875 0 0 Z " fill="#1C3D49" transform="translate(33.5,317.8125)"/>
<path d="M0 0 C6.09290877 0.18031973 10.10721252 3.39019831 14.875 6.8125 C15.65875 7.34681641 16.4425 7.88113281 17.25 8.43164062 C17.98992187 8.95564453 18.72984375 9.47964844 19.4921875 10.01953125 C20.50321533 10.73266479 20.50321533 10.73266479 21.53466797 11.46020508 C23 13 23 13 23 17 C21.80375 16.7525 20.6075 16.505 19.375 16.25 C15.94339314 15.83626017 14.95393181 16.02047475 11.625 17.5 C8.46829173 20.50638883 8.02139844 22.83583714 7 27 C6.01 27.33 5.02 27.66 4 28 C3.15274579 24.8160367 2.32477028 21.62735477 1.5 18.4375 C1.26152344 17.54224609 1.02304687 16.64699219 0.77734375 15.72460938 C-0.5166371 10.67808405 -1.39188859 6.21351789 -1 1 C-0.67 0.67 -0.34 0.34 0 0 Z " fill="#1B3C47" transform="translate(350,421)"/>
<path d="M0 0 C1.875 0.1875 1.875 0.1875 4 1 C7.98655288 8.97310577 8.351516 19.21209999 8 28 C6.125 27.8125 6.125 27.8125 4 27 C3.5359375 25.7934375 3.5359375 25.7934375 3.0625 24.5625 C2.22565392 21.82208402 2.22565392 21.82208402 -0.3125 20.625 C-3.32518419 19.92437577 -5.07150122 20.05021661 -8 21 C-8.66 21.66 -9.32 22.32 -10 23 C-12.625 23.125 -12.625 23.125 -15 23 C-14.39889791 18.89246904 -12.09853324 15.92358714 -9.75 12.625 C-9.36714844 12.07328125 -8.98429688 11.5215625 -8.58984375 10.953125 C-5.90894985 7.13352366 -3.02605271 3.5518562 0 0 Z " fill="#1A3B47" transform="translate(197,450)"/>
<path d="M0 0 C-0.125 1.75 -0.125 1.75 -1 4 C-3 5.33333333 -5 6.66666667 -7 8 C-7.33 9.32 -7.66 10.64 -8 12 C-3.05 10.515 -3.05 10.515 2 9 C2.33 10.32 2.66 11.64 3 13 C1.02 14.32 -0.96 15.64 -3 17 C-2.67 18.32 -2.34 19.64 -2 21 C-0.700625 20.5359375 -0.700625 20.5359375 0.625 20.0625 C3.76150738 19.07508101 6.75067413 18.46418941 10 18 C10 19.32 10 20.64 10 22 C3.07 25.465 3.07 25.465 -4 29 C-15 11.09302326 -15 11.09302326 -15 6 C-13.25595212 4.98965502 -11.50450439 3.99207578 -9.75 3 C-8.77546875 2.443125 -7.8009375 1.88625 -6.796875 1.3125 C-4 0 -4 0 0 0 Z " fill="#1A3B47" transform="translate(341,430)"/>
<path d="M0 0 C0.99 0.33 1.98 0.66 3 1 C2.855625 1.70125 2.71125 2.4025 2.5625 3.125 C1.98521625 6.07556141 1.48304859 9.03270151 1 12 C1.99 12 2.98 12 4 12 C4.66 11.01 5.32 10.02 6 9 C6.66 8.01 7.32 7.02 8 6 C8.99 6 9.98 6 11 6 C10.67 9.63 10.34 13.26 10 17 C13.91191492 16.45925684 13.91191492 16.45925684 15.265625 14.37109375 C15.59046875 13.73300781 15.9153125 13.09492188 16.25 12.4375 C17.11625 10.7359375 17.11625 10.7359375 18 9 C18.99 9.33 19.98 9.66 21 10 C20.54979057 15.85272256 17.96160773 20.08220119 15 25 C9.95708458 24.42423407 6.0838724 22.08813611 1.75 19.625 C0.65171875 19.02558594 0.65171875 19.02558594 -0.46875 18.4140625 C-1.16484375 18.0221875 -1.8609375 17.6303125 -2.578125 17.2265625 C-3.21137695 16.87158691 -3.84462891 16.51661133 -4.49707031 16.15087891 C-6 15 -6 15 -7 12 C-6.07421875 9.84375 -6.07421875 9.84375 -4.6875 7.5 C-4.23761719 6.7265625 -3.78773438 5.953125 -3.32421875 5.15625 C-2.25403771 3.41365432 -1.13434863 1.70152295 0 0 Z " fill="#1E3E4A" transform="translate(419,343)"/>
<path d="M0 0 C3.32997682 1.43240688 5.3992896 3.18236524 7.8125 5.875 C8.43769531 6.55304688 9.06289062 7.23109375 9.70703125 7.9296875 C11 10 11 10 10.69921875 12.2578125 C10.46847656 12.83273437 10.23773438 13.40765625 10 14 C9.01 14 8.02 14 7 14 C5.33333333 12 3.66666667 10 2 8 C1.01 8 0.02 8 -1 8 C-0.45276317 11.37462715 0.0549 13.08235 2 16 C1.67 17.32 1.34 18.64 1 20 C-1.31 18.02 -3.62 16.04 -6 14 C-7.98 14.99 -7.98 14.99 -10 16 C-9.38125 16.886875 -8.7625 17.77375 -8.125 18.6875 C-6.34602259 21.46061184 -5.08916398 23.9140354 -4 27 C-5.32 27.33 -6.64 27.66 -8 28 C-9.31772362 26.40012144 -10.62901137 24.79494034 -11.9375 23.1875 C-12.66839844 22.29417969 -13.39929688 21.40085937 -14.15234375 20.48046875 C-16 18 -16 18 -17 15 C-11.67248457 9.45050476 -6.32532275 4.39497902 0 0 Z " fill="#1C3C48" transform="translate(84,377)"/>
<path d="M0 0 C3.75 0.4375 3.75 0.4375 6.6875 3.0625 C8.93489725 6.74005913 9.46539764 8.23453885 8.75 12.4375 C7.47144206 15.25032746 6.39816558 16.94578818 3.9375 18.8125 C0.78854906 19.71220027 -1.11958112 19.39579149 -4.25 18.4375 C-7.84649806 15.77921883 -9.08329091 14.37107093 -9.875 9.9375 C-9.10210991 5.60931549 -7.58130443 4.20004514 -4.25 1.4375 C-3.25 0.4375 -3.25 0.4375 0 0 Z " fill="#579DB8" transform="translate(448.25,241.5625)"/>
<path d="M0 0 C3.96684337 3.54928091 4.59196057 6.79749723 5 12 C3.68 12.33 2.36 12.66 1 13 C0.5875 11.88625 0.175 10.7725 -0.25 9.625 C-1.35546516 7.00679305 -1.74880787 6.16506911 -4.1875 4.5625 C-4.785625 4.376875 -5.38375 4.19125 -6 4 C-5.835 4.825 -5.67 5.65 -5.5 6.5 C-4.07407407 16.48148148 -4.07407407 16.48148148 -6.5625 20.5625 C-9 22 -9 22 -12.5 22.0625 C-16.75251864 20.77155684 -17.89055706 19.89435619 -20 16 C-20.59220215 13.00385864 -20.86715037 10.04889893 -21 7 C-19.68 6.67 -18.36 6.34 -17 6 C-16.81824219 6.63808594 -16.63648438 7.27617187 -16.44921875 7.93359375 C-16.19785156 8.75988281 -15.94648437 9.58617187 -15.6875 10.4375 C-15.44386719 11.26121094 -15.20023438 12.08492188 -14.94921875 12.93359375 C-14.47935547 13.95646484 -14.47935547 13.95646484 -14 15 C-13.01 15.33 -12.02 15.66 -11 16 C-11.04640625 15.02417969 -11.0928125 14.04835938 -11.140625 13.04296875 C-11.17671875 11.77066406 -11.2128125 10.49835938 -11.25 9.1875 C-11.29640625 7.92292969 -11.3428125 6.65835937 -11.390625 5.35546875 C-11 2 -11 2 -9.203125 0.05078125 C-5.78333704 -1.58028783 -3.58292401 -1.02369257 0 0 Z " fill="#1C3D48" transform="translate(66,346)"/>
<path d="M0 0 C1.21236328 0.01353516 1.21236328 0.01353516 2.44921875 0.02734375 C3.37154297 0.04474609 3.37154297 0.04474609 4.3125 0.0625 C4.3125 1.7125 4.3125 3.3625 4.3125 5.0625 C2.6728125 4.9696875 2.6728125 4.9696875 1 4.875 C-2.60876083 4.70652086 -2.60876083 4.70652086 -4.625 6.5625 C-4.975625 7.0575 -5.32625 7.5525 -5.6875 8.0625 C-4.3571875 8.495625 -4.3571875 8.495625 -3 8.9375 C4.85535714 11.60535714 4.85535714 11.60535714 7.3125 14.0625 C7.98772936 21.15240826 7.98772936 21.15240826 5.875 24 C2.13942848 25.54889551 -1.63921216 26.21217261 -5.6875 26.0625 C-7.96875 25.07421875 -7.96875 25.07421875 -9.6875 24.0625 C-9.3575 22.7425 -9.0275 21.4225 -8.6875 20.0625 C-5.3875 20.0625 -2.0875 20.0625 1.3125 20.0625 C1.3125 19.0725 1.3125 18.0825 1.3125 17.0625 C0.69761719 16.88074219 0.08273437 16.69898438 -0.55078125 16.51171875 C-1.35902344 16.26035156 -2.16726563 16.00898438 -3 15.75 C-3.80050781 15.50636719 -4.60101563 15.26273437 -5.42578125 15.01171875 C-7.84862827 13.99487622 -9.09906336 13.14511693 -10.6875 11.0625 C-11.33794248 4.99170354 -11.33794248 4.99170354 -9.375 2.1875 C-6.27594487 0.12146325 -3.6083786 -0.05229534 0 0 Z " fill="#1D3D49" transform="translate(270.6875,453.9375)"/>
<path d="M0 0 C1.32 0.33 2.64 0.66 4 1 C3.01 4.3 2.02 7.6 1 11 C5.22126179 9.94468455 5.55007857 9.72731761 7.9375 6.5 C9.82807429 4.20090965 10.84762027 3.07433157 13.5625 1.75 C16 2 16 2 18.8125 3.9375 C21.09841711 7.13778396 21.67259228 9.06593119 21.44140625 12.99609375 C20.71327154 16.30169646 19.1006433 18.37419588 17 21 C16.01 20.67 15.02 20.34 14 20 C14.2165625 18.9790625 14.2165625 18.9790625 14.4375 17.9375 C15.06945909 14.63726918 15.54313941 11.32855574 16 8 C12.81618605 9.17919035 11.7696711 10.29700306 9.625 13.0625 C7 16 7 16 4 17.1875 C1 17 1 17 -1.9375 15.125 C-4.45835075 11.30552916 -4.28629898 9.47214003 -3.6875 5.0859375 C-2.87307032 2.61488381 -2.14534634 1.47989169 0 0 Z " fill="#1D3D49" transform="translate(433,308)"/>
<path d="M0 0 C0.91007812 0.00902344 1.82015625 0.01804687 2.7578125 0.02734375 C3.45648438 0.03894531 4.15515625 0.05054688 4.875 0.0625 C5.205 1.0525 5.535 2.0425 5.875 3.0625 C5.545 3.7225 5.215 4.3825 4.875 5.0625 C2.58984375 5.6953125 2.58984375 5.6953125 -0.1875 6.1875 C-1.10660156 6.35507812 -2.02570313 6.52265625 -2.97265625 6.6953125 C-4.03806641 6.87707031 -4.03806641 6.87707031 -5.125 7.0625 C-5.20631463 8.49905854 -5.26433559 9.9369483 -5.3125 11.375 C-5.34730469 12.17550781 -5.38210938 12.97601563 -5.41796875 13.80078125 C-5.3046489 16.1230529 -5.3046489 16.1230529 -3.8046875 17.8359375 C-1.24847196 19.70256931 0.80722981 19.38885853 3.875 19.0625 C4.535 18.4025 5.195 17.7425 5.875 17.0625 C8.5 17.4375 8.5 17.4375 10.875 18.0625 C9.47408008 21.44805647 8.07830189 23.24440974 4.875 25.0625 C0.7002953 26.2221402 -1.33220441 26.42003526 -5.3125 24.625 C-9.81937974 20.51873179 -11.75642025 16.43779171 -12.6875 10.4375 C-11.93012642 5.89325852 -10.3604137 4.2979137 -7.125 1.0625 C-4.60024538 -0.19987731 -2.81299534 -0.03606404 0 0 Z " fill="#1F3F4A" transform="translate(301.125,446.9375)"/>
<path d="M0 0 C1.32 0.66 2.64 1.32 4 2 C3.67 2.556875 3.34 3.11375 3 3.6875 C1.8690399 6.30284522 1.84337026 8.1806646 2 11 C4.76448191 9.42029605 7.08827856 7.9185121 9.4375 5.75 C12 4 12 4 15.1875 4.0625 C18 5 18 5 20 8 C20.48384204 12.91906075 20.51355236 15.05848735 18.125 19.4375 C16 22 16 22 14 23 C13.01 22.01 12.02 21.02 11 20 C11.474375 19.46375 11.94875 18.9275 12.4375 18.375 C14.28186076 15.57157164 14.62456847 13.30379742 15 10 C12.26388464 11.56349449 9.91578349 13.07557892 7.5625 15.1875 C4.41032236 17.41708907 2.78469636 17.57593206 -1 17 C-3.09082071 15.41334882 -3.89504353 14.50492574 -4.43359375 11.9140625 C-4.44079508 7.69408595 -4.37187535 5.56943413 -2 1.9375 C-1.34 1.298125 -0.68 0.65875 0 0 Z " fill="#1D3E49" transform="translate(427,326)"/>
<path d="M0 0 C4.05990199 1.35330066 5.33761335 2.37620857 7.375 6.125 C7.95950518 10.21653627 7.75689762 12.37711716 5.875 16.0625 C2.99858271 18.43554426 1.06227404 18.80897843 -2.65234375 18.53125 C-6.03810533 17.83398425 -7.49799416 16.85022624 -9.625 14.125 C-10.40103649 10.94976673 -10.41417248 8.29860078 -9.625 5.125 C-7.20607369 1.35181566 -4.48720842 0.15473132 0 0 Z " fill="#559CB8" transform="translate(35.625,241.875)"/>
<path d="M0 0 C2.0625 0.4375 2.0625 0.4375 4 1 C3.27038881 8.64862066 1.97078719 16.13694564 0.5625 23.6875 C0.34529297 24.88439453 0.12808594 26.08128906 -0.09570312 27.31445312 C-0.31033203 28.47267578 -0.52496094 29.63089844 -0.74609375 30.82421875 C-0.93872803 31.86666748 -1.1313623 32.90911621 -1.32983398 33.9831543 C-2.01775109 37.07990899 -2.94582137 40.01004222 -4 43 C-5.65 42.67 -7.3 42.34 -9 42 C-8.3365512 34.85115277 -7.06397414 27.95459341 -5.5625 20.9375 C-5.34529297 19.90044922 -5.12808594 18.86339844 -4.90429688 17.79492188 C-1.45367137 1.45367137 -1.45367137 1.45367137 0 0 Z " fill="#1E3F4A" transform="translate(286,23)"/>
<path d="M0 0 C-1.57313172 4.72843614 -4.20641235 8.3433843 -7.125 12.3125 C-7.59292969 12.95767578 -8.06085938 13.60285156 -8.54296875 14.26757812 C-9.6905929 15.84848894 -10.84465477 17.42472301 -12 19 C-15.16488534 15.98936957 -17.73075276 13.22127584 -19.8125 9.375 C-20.44091797 8.24191406 -20.44091797 8.24191406 -21.08203125 7.0859375 C-22 5 -22 5 -22 2 C-19.45887768 1.66198848 -16.91723254 1.32946621 -14.375 1 C-13.66214844 0.90460938 -12.94929688 0.80921875 -12.21484375 0.7109375 C-8.11178391 0.18393899 -4.14754258 -0.10466984 0 0 Z " fill="#F6F7F7" transform="translate(433,139)"/>
<path d="M0 0 C1.485 0.495 1.485 0.495 3 1 C2.52158898 5.25688176 0.18009806 7.0040651 -2.9375 9.75 C-3.67685791 10.40415894 -3.67685791 10.40415894 -4.43115234 11.0715332 C-8.38139518 14.53700224 -12.43424727 17.86617809 -16.57421875 21.1015625 C-18.24128745 22.40622496 -19.88894107 23.73596051 -21.51953125 25.0859375 C-22.31746094 25.73820312 -23.11539062 26.39046875 -23.9375 27.0625 C-24.64777344 27.65160156 -25.35804688 28.24070313 -26.08984375 28.84765625 C-26.72019531 29.22792969 -27.35054688 29.60820312 -28 30 C-28.99 29.67 -29.98 29.34 -31 29 C-30.77905239 25.28406287 -30.07869463 24.0794068 -27.41015625 21.38671875 C-26.3047767 20.47410293 -25.18819333 19.57493795 -24.0625 18.6875 C-23.47710449 18.21038574 -22.89170898 17.73327148 -22.28857422 17.24169922 C-20.53455552 15.81640971 -18.76793644 14.40796085 -17 13 C-16.06285156 12.23558594 -15.12570312 11.47117187 -14.16015625 10.68359375 C-11.79343763 8.76177447 -9.40555318 6.87286477 -7 5 C-6.31808594 4.45988281 -5.63617188 3.91976562 -4.93359375 3.36328125 C-3.0625 1.9375 -3.0625 1.9375 0 0 Z " fill="#1D3E49" transform="translate(413,101)"/>
<path d="M0 0 C2 2 2 2 2.5625 4.3125 C4.8195404 8.53218424 8.79860856 9.96846299 13 12 C10 14 10 14 7 15.6875 C3.25545201 18.57392241 2.52101385 20.60596 1 25 C0.5875 24.443125 0.175 23.88625 -0.25 23.3125 C-0.8275 22.549375 -1.405 21.78625 -2 21 C-2.598125 20.154375 -3.19625 19.30875 -3.8125 18.4375 C-6.29033992 15.67647838 -8.61884757 14.46004309 -12 13 C-11.443125 12.5875 -10.88625 12.175 -10.3125 11.75 C-9.549375 11.1725 -8.78625 10.595 -8 10 C-7.154375 9.401875 -6.30875 8.80375 -5.4375 8.1875 C-2.67647838 5.70966008 -1.46004309 3.38115243 0 0 Z " fill="#599EB9" transform="translate(333,135)"/>
<path d="M0 0 C4.09347331 0.54338141 6.46420955 1.75685206 9.6875 4.3125 C10.45449219 4.90675781 11.22148437 5.50101562 12.01171875 6.11328125 C13.98773614 7.98836259 14.96906935 9.50261185 16 12 C12.90645403 12.99435406 11.09720845 12.87840996 8 12 C6.98679687 13.39025391 6.98679687 13.39025391 5.953125 14.80859375 C5.05262891 16.01863537 4.15155703 17.22824864 3.25 18.4375 C2.8065625 19.04916016 2.363125 19.66082031 1.90625 20.29101562 C-0.54647631 23.55530579 -1.95928623 25.30526761 -6 26 C-6.77734375 24.41015625 -6.77734375 24.41015625 -7 22 C-5.59962119 19.65823919 -4.20790565 17.591794 -2.5625 15.4375 C0.90593705 11.19669398 0.90593705 11.19669398 2 6 C1.01 5.34 0.02 4.68 -1 4 C-0.67 2.68 -0.34 1.36 0 0 Z " fill="#1C3C48" transform="translate(118,412)"/>
<path d="M0 0 C4.02135071 1.34045024 4.90551694 3.32529228 7.25 6.8125 C8.34054688 8.39998047 8.34054688 8.39998047 9.453125 10.01953125 C11 13 11 13 10.734375 15.38671875 C10.49203125 15.91910156 10.2496875 16.45148438 10 17 C9.4225 16.67 8.845 16.34 8.25 16 C5.80116138 14.72924102 5.80116138 14.72924102 2 15 C-0.51085303 16.43152707 -2.8645432 17.88545302 -5.25 19.5 C-5.8996875 19.92925781 -6.549375 20.35851562 -7.21875 20.80078125 C-8.81791396 21.85905152 -10.40969754 22.92845931 -12 24 C-12.99 23.01 -13.98 22.02 -15 21 C-13.51534413 16.60541863 -10.18679232 14.94911095 -6.375 12.75 C-5.45847656 12.20472656 -5.45847656 12.20472656 -4.5234375 11.6484375 C-3.02106273 10.75640248 -1.51123449 9.87694171 0 9 C-0.57584432 6.61435923 -1.22227595 4.33317216 -2 2 C-1.34 1.34 -0.68 0.68 0 0 Z " fill="#1C3C48" transform="translate(72,359)"/>
<path d="M0 0 C1.32 0 2.64 0 4 0 C5.17112946 2.62309099 6.33705964 5.24828142 7.5 7.875 C7.83386719 8.62136719 8.16773438 9.36773437 8.51171875 10.13671875 C8.98544922 11.20986328 8.98544922 11.20986328 9.46875 12.3046875 C9.76201172 12.96452637 10.05527344 13.62436523 10.35742188 14.30419922 C11 16 11 16 11 18 C14.3 16.68 17.6 15.36 21 14 C21.66 15.32 22.32 16.64 23 18 C21.41925436 18.81752303 19.83528777 19.62881997 18.25 20.4375 C17.36828125 20.88996094 16.4865625 21.34242188 15.578125 21.80859375 C13.35801434 22.83455398 11.38555381 23.51508603 9 24 C4.53018769 17.48684491 1.18840936 10.61774879 -1 3 C-0.67 2.01 -0.34 1.02 0 0 Z " fill="#1F3F4B" transform="translate(310,443)"/>
<path d="M0 0 C2.33778657 1.60722826 4.16644965 2.88558789 6 5 C6.74908919 9.19489947 6.40141937 11.22927481 4.4375 15 C2 17 2 17 -1.4375 17.0625 C-5.15422558 15.9540029 -7.19603754 14.63402534 -10 12 C-9.49452628 7.91944849 -7.49911118 6.33727705 -4.4375 3.75 C-3.61121094 3.04359375 -2.78492188 2.3371875 -1.93359375 1.609375 C-1.29550781 1.07828125 -0.65742188 0.5471875 0 0 Z " fill="#C97E1E" transform="translate(343,328)"/>
<path d="M0 0 C1.8125 1.125 1.8125 1.125 3 3 C3.5 6.375 3.5 6.375 3 10 C0.68802361 13.10465401 -0.74283172 14.72403623 -4.5625 15.5625 C-7.85940593 14.80167555 -9.04476263 13.75181556 -11 11 C-11.66974422 7.06525272 -11.35110528 5.52665792 -9.125 2.1875 C-5.8633186 -1.17011321 -4.42599258 -1.29541246 0 0 Z " fill="#F4F5F5" transform="translate(143,433)"/>
<path d="M0 0 C4.44926052 0.41314562 6.84100104 3.50461527 9.75 6.5625 C10.25660156 7.08263672 10.76320313 7.60277344 11.28515625 8.13867188 C12.53034405 9.41910084 13.76611502 10.70867554 15 12 C17.22509937 10.95128513 18.81772898 10.19746027 20.5 8.375 C22 7 22 7 26 7 C24.65515286 11.04161955 22.9494838 13.38678154 19.875 16.3125 C19.15054687 17.00988281 18.42609375 17.70726562 17.6796875 18.42578125 C17.12539063 18.94527344 16.57109375 19.46476562 16 20 C11.6901878 16.43972036 7.54908001 12.73018041 3.5 8.875 C2.6234375 8.04742187 1.746875 7.21984375 0.84375 6.3671875 C-1 4 -1 4 -0.78125 1.6953125 C-0.5234375 1.13585937 -0.265625 0.57640625 0 0 Z " fill="#153743" transform="translate(382,395)"/>
<path d="M0 0 C8.01869159 -0.77102804 8.01869159 -0.77102804 11.625 2.0625 C13.42593997 5.90996265 13.19823746 7.95594856 12 12 C10.3125 13.9375 10.3125 13.9375 8 15 C4.75 15.1875 4.75 15.1875 2 15 C-0.10428384 9.87080814 -0.21755666 5.4389165 0 0 Z " fill="#F2F3F4" transform="translate(239,461)"/>
<path d="M0 0 C2 1 2 1 3.125 3.5 C4.89031254 10.56125018 4.75402064 16.58183567 1 23 C-2.78008067 27.14281568 -6.48143457 29.65400843 -12 31 C-11.1646875 29.7625 -11.1646875 29.7625 -10.3125 28.5 C-9.54002717 27.33441823 -8.76935666 26.16764098 -8 25 C-7.56816406 24.3503125 -7.13632812 23.700625 -6.69140625 23.03125 C-1.80264818 15.48776573 -0.60165408 8.89814714 0 0 Z " fill="#EDF4F6" transform="translate(302,329)"/>
<path d="M0 0 C4.50195197 0.8679856 7.21261551 3.47196671 10.5625 6.4375 C15.11740351 10.42513734 15.11740351 10.42513734 20 14 C19.67 15.32 19.34 16.64 19 18 C14.11422353 18 13.20576591 16.91003399 9.5625 13.8125 C8.63566406 13.03519531 7.70882813 12.25789063 6.75390625 11.45703125 C4.05638154 9.05030353 1.43878834 6.67020621 -1 4 C-0.8125 1.6875 -0.8125 1.6875 0 0 Z " fill="#1C3D49" transform="translate(394,381)"/>
<path d="M0 0 C7.84179688 6.4453125 7.84179688 6.4453125 10 10 C10 10.66 10 11.32 10 12 C3.5 15 3.5 15 -1 15 C-1.02693575 12.87506859 -1.04636628 10.75004088 -1.0625 8.625 C-1.07410156 7.44164062 -1.08570313 6.25828125 -1.09765625 5.0390625 C-1 2 -1 2 0 0 Z " fill="#F2F3F4" transform="translate(166,45)"/>
<path d="M0 0 C1.87109375 0.22265625 1.87109375 0.22265625 4 1 C5.16015625 2.99609375 5.16015625 2.99609375 6.0625 5.4375 C7.3943611 8.99865651 7.69542974 9.79695316 11 12 C10.25 19.75 10.25 19.75 8 22 C6.65791246 18.89954577 5.32786246 15.79407011 4 12.6875 C3.6184375 11.80642578 3.236875 10.92535156 2.84375 10.01757812 C2.4828125 9.17001953 2.121875 8.32246094 1.75 7.44921875 C1.41484375 6.66893311 1.0796875 5.88864746 0.734375 5.0847168 C0 3 0 3 0 0 Z " fill="#1F404B" transform="translate(187,297)"/>
<path d="M0 0 C0.598125 0.763125 1.19625 1.52625 1.8125 2.3125 C3.46959332 4.3483575 5.10297674 6.1978279 7 8 C2.375 12.875 2.375 12.875 -1 14 C-1.12375 13.071875 -1.12375 13.071875 -1.25 12.125 C-1.91214206 9.46510021 -1.91214206 9.46510021 -6 8 C-4.02 5.36 -2.04 2.72 0 0 Z " fill="#5A9FBA" transform="translate(272,89)"/>
<path d="M0 0 C2.33944736 0.28730055 4.6739143 0.61936779 7 1 C7.66 2.65 8.32 4.3 9 6 C7.875 7.5 7.875 7.5 6 9 C2.8125 9.1875 2.8125 9.1875 0 9 C-1.36623674 6.26752652 -1.128426 4.01801098 -1 1 C-0.67 0.67 -0.34 0.34 0 0 Z " fill="#EDEFF0" transform="translate(217,459)"/>
<path d="M0 0 C3 1 3 1 5 4 C4.625 7.1875 4.625 7.1875 4 10 C2.3125 10.75 2.3125 10.75 0 11 C-2.75 9.0625 -2.75 9.0625 -5 7 C-3.70700306 4.11562221 -2.34058637 2.12780579 0 0 Z " fill="#EEF0F1" transform="translate(98,399)"/>
<path d="M0 0 C1.9375 1.5625 1.9375 1.5625 3 3 C0.66836622 3.67258667 -1.6652039 4.33847444 -4 5 C-4.763125 5.2475 -5.52625 5.495 -6.3125 5.75 C-6.869375 5.8325 -7.42625 5.915 -8 6 C-8.66 5.34 -9.32 4.68 -10 4 C-9.75 1.9375 -9.75 1.9375 -9 0 C-5.85000502 -1.57499749 -3.36459118 -0.70833498 0 0 Z " fill="#21414D" transform="translate(50,304)"/>
<path d="M0 0 C1.52519276 0.08937803 3.04681929 0.24537146 4.5625 0.4375 C5.80193359 0.59025391 5.80193359 0.59025391 7.06640625 0.74609375 C7.70449219 0.82988281 8.34257813 0.91367187 9 1 C9.33 1.99 9.66 2.98 10 4 C8.00458132 4.68025637 6.00382009 5.34490497 4 6 C2.88625 6.37125 2.88625 6.37125 1.75 6.75 C1.1725 6.8325 0.595 6.915 0 7 C-0.66 6.34 -1.32 5.68 -2 5 C-1.46428571 1.46428571 -1.46428571 1.46428571 0 0 Z " fill="#22424D" transform="translate(40,295)"/>
<path d="M0 0 C0.33 0 0.66 0 1 0 C1 6.27 1 12.54 1 19 C0.67 17.68 0.34 16.36 0 15 C-1.9837767 13.71563266 -1.9837767 13.71563266 -4 13 C-3.40895235 8.15340923 -2.02055843 4.39251833 0 0 Z " fill="#5F9AAC" transform="translate(369,244)"/>
<path d="M0 0 C2.875 0.0625 2.875 0.0625 6 1 C8.375 3.5625 8.375 3.5625 10 6 C6.76369066 7.61815467 3.41944272 6.97077399 0 6 C-1.5 3.9375 -1.5 3.9375 -2 2 C-1.34 1.34 -0.68 0.68 0 0 Z " fill="#2B4A55" transform="translate(434,298)"/>
<path d="M0 0 C6.2424812 0.46240602 6.2424812 0.46240602 8.9375 2.375 C10 4 10 4 10 7 C6.7 6.34 3.4 5.68 0 5 C-0.33 3.68 -0.66 2.36 -1 1 C-0.67 0.67 -0.34 0.34 0 0 Z " fill="#1E3F4A" transform="translate(435,290)"/>
<path d="M0 0 C0.66 1.32 1.32 2.64 2 4 C2.66 4 3.32 4 4 4 C3.67 5.65 3.34 7.3 3 9 C1.68 9 0.36 9 -1 9 C-2.75 7 -2.75 7 -4 5 C-3.01 4.67 -2.02 4.34 -1 4 C-0.26676204 1.98491642 -0.26676204 1.98491642 0 0 Z " fill="#5DA1BB" transform="translate(244,115)"/>
<path d="M0 0 C0.99 0.33 1.98 0.66 3 1 C1.38395881 3.98411132 -0.24430729 6.9613735 -1.875 9.9375 C-2.33519531 10.78763672 -2.79539063 11.63777344 -3.26953125 12.51367188 C-3.71425781 13.32255859 -4.15898437 14.13144531 -4.6171875 14.96484375 C-5.22989502 16.08814087 -5.22989502 16.08814087 -5.85498047 17.23413086 C-7 19 -7 19 -9 20 C-7.55676531 15.26210835 -5.62773267 11.01141849 -3.375 6.625 C-2.88773438 5.66400391 -2.88773438 5.66400391 -2.390625 4.68359375 C-1.59742593 3.12052499 -0.79922969 1.55999378 0 0 Z " fill="#2D4B56" transform="translate(207,286)"/>
<path d="M0 0 C0.66 0.33 1.32 0.66 2 1 C2 3.31 2 5.62 2 8 C0.68 8.33 -0.64 8.66 -2 9 C-2.6875 6.75 -2.6875 6.75 -3 4 C-1.5625 1.6875 -1.5625 1.6875 0 0 Z " fill="#E7EBEC" transform="translate(197,457)"/>
<path d="M0 0 C2 3 2 3 1.625 5.6875 C1.41875 6.450625 1.2125 7.21375 1 8 C-0.32 8.33 -1.64 8.66 -3 9 C-3 8.34 -3 7.68 -3 7 C-3.66 6.67 -4.32 6.34 -5 6 C-3.35 4.02 -1.7 2.04 0 0 Z " fill="#BD7C26" transform="translate(354,316)"/>
<path d="M0 0 C3 1.8125 3 1.8125 6 4 C6 4.99 6 5.98 6 7 C4.02 7.99 4.02 7.99 2 9 C0.50178941 5.62902617 0 3.79557881 0 0 Z " fill="#F3F4F5" transform="translate(354,427)"/>
<path d="M0 0 C0.33 0 0.66 0 1 0 C0.85851011 1.6045556 0.71164314 3.20863767 0.5625 4.8125 C0.48128906 5.70582031 0.40007812 6.59914062 0.31640625 7.51953125 C0 10 0 10 -1 13 C-1.99 13.33 -2.98 13.66 -4 14 C-3.00956295 9.16371695 -2.04301154 4.52381127 0 0 Z " fill="#294853" transform="translate(261,153)"/>
<path d="M0 0 C2.97 0 5.94 0 9 0 C6.47211993 2.79872437 4.79588866 4.45773019 1 5 C0.67 3.35 0.34 1.7 0 0 Z " fill="#EEF1F1" transform="translate(42,324)"/>
<path d="M0 0 C0 0.66 0 1.32 0 2 C-1.28913487 2.67154933 -2.58140204 3.33708859 -3.875 4 C-4.59429687 4.37125 -5.31359375 4.7425 -6.0546875 5.125 C-8 6 -8 6 -10 6 C-9.875 4.125 -9.875 4.125 -9 2 C-5.82254537 0.61849799 -3.46877176 0 0 0 Z " fill="#EAECED" transform="translate(225,239)"/>
<path d="M0 0 C-3.3 2.31 -6.6 4.62 -10 7 C-10 4 -10 4 -8.8125 2.4375 C-6.03761651 0.23673033 -3.36564202 -1.68282101 0 0 Z " fill="#2D4B56" transform="translate(310,194)"/>
<path d="M0 0 C0.33 0.66 0.66 1.32 1 2 C0.14453125 4.34765625 0.14453125 4.34765625 -1.1875 7.0625 C-1.82751953 8.41021484 -1.82751953 8.41021484 -2.48046875 9.78515625 C-4 12 -4 12 -6.17578125 12.80859375 C-6.77777344 12.87175781 -7.37976563 12.93492187 -8 13 C-6.53181332 9.89257577 -4.79975 7.09528261 -2.875 4.25 C-2.33617187 3.45078125 -1.79734375 2.6515625 -1.2421875 1.828125 C-0.62730469 0.92320312 -0.62730469 0.92320312 0 0 Z " fill="#3B5861" transform="translate(281,162)"/>
<path d="M0 0 C0 0.66 0 1.32 0 2 C-2.97 2.66 -5.94 3.32 -9 4 C-8.67 3.01 -8.34 2.02 -8 1 C-5.07175348 0.02391783 -3.04386724 -0.08226668 0 0 Z " fill="#DCE1E3" transform="translate(223,234)"/>
<path d="M0 0 C3.48670834 1.1094072 6.77484237 2.26337666 10 4 C9.67 4.99 9.34 5.98 9 7 C7.4972763 6.02501855 5.99788037 5.04490611 4.5 4.0625 C3.6646875 3.51722656 2.829375 2.97195312 1.96875 2.41015625 C1.3190625 1.94480469 0.669375 1.47945312 0 1 C0 0.67 0 0.34 0 0 Z " fill="#304E58" transform="translate(169,192)"/>
<path d="M0 0 C0.33 0.99 0.66 1.98 1 3 C-0.39195915 5.7839183 -2.15575779 5.97898997 -5 7 C-3.70700306 4.11562221 -2.34058637 2.12780579 0 0 Z " fill="#F0F2F3" transform="translate(229,246)"/>
</svg>
